<svg width="32" height="32" viewBox="0 0 32 32" fill="none" xmlns="http://www.w3.org/2000/svg">
<path fill-rule="evenodd" clip-rule="evenodd" d="M16 29C23.1797 29 29 23.1797 29 16C29 8.8203 23.1797 3 16 3C8.8203 3 3 8.8203 3 16C3 23.1797 8.8203 29 16 29ZM10 22.5873L13.232 11.2469C13.9205 8.83109 15.658 7.34644 18.32 8.10511C20.1665 8.63136 21.6707 10.1248 21.0568 12.2791C20.7191 13.4639 19.9306 14.1875 18.7704 14.5223L18.7484 14.5992C20.0939 15.2489 20.785 16.7935 20.3114 18.4553C19.6097 20.9173 17.5135 21.6175 15.8363 21.1395C14.8515 20.8589 13.8841 20.2837 13.2746 19.0951C13.0817 19.9443 12.8819 20.7566 12.6838 21.5621C12.5465 22.1202 12.4101 22.6749 12.2773 23.2364L10 22.5873ZM13.7789 17.3256C14.2126 18.4308 15.0129 18.8918 15.7361 19.0979C16.7362 19.3829 17.7711 18.9625 18.1395 17.6699C18.4333 16.639 18.0656 15.6524 16.85 15.306C16.5577 15.2227 16.3137 15.203 16.0654 15.1988L16.2466 13.4537C17.794 13.6285 18.5319 12.9071 18.8301 11.8608C19.1283 10.8144 18.5806 10.1093 17.8267 9.89442C16.7188 9.57868 15.8886 10.3902 15.3688 12.0389C14.7941 13.8216 14.292 15.5252 13.7789 17.3256Z" fill="#2727AD"/>
</svg>
