<svg width="32" height="32" viewBox="0 0 32 32" fill="none" xmlns="http://www.w3.org/2000/svg">
<mask id="path-1-inside-1_996_2353" fill="white">
<path fill-rule="evenodd" clip-rule="evenodd" d="M16 29C23.1797 29 29 23.1797 29 16C29 8.8203 23.1797 3 16 3C8.8203 3 3 8.8203 3 16C3 23.1797 8.8203 29 16 29ZM10.6634 21.9091L13.5627 11.7358C14.1804 9.56868 15.739 8.23685 18.127 8.91743C19.7834 9.38951 21.1329 10.7293 20.5821 12.6618C20.2792 13.7247 19.5718 14.3738 18.531 14.6741L18.5114 14.7431C19.7183 15.3259 20.3383 16.7115 19.9135 18.2023C19.284 20.4109 17.4036 21.0391 15.899 20.6103C15.0155 20.3585 14.1477 19.8425 13.6009 18.7763C13.4279 19.538 13.2486 20.2668 13.0709 20.9893C12.9478 21.49 12.8254 21.9877 12.7063 22.4913L10.6634 21.9091ZM14.0533 17.1889C14.4423 18.1803 15.1603 18.5939 15.809 18.7788C16.7063 19.0345 17.6346 18.6573 17.9651 17.4978C18.2287 16.5729 17.8988 15.6879 16.8083 15.3771C16.5461 15.3024 16.3272 15.2848 16.1044 15.281L16.267 13.7155C17.6551 13.8723 18.3171 13.2252 18.5847 12.2865C18.8522 11.3479 18.3608 10.7153 17.6845 10.5226C16.6906 10.2393 15.9458 10.9673 15.4795 12.4463C14.9641 14.0456 14.5136 15.5738 14.0533 17.1889Z"/>
</mask>
<path d="M13.5627 11.7358L15.4861 12.284L13.5627 11.7358ZM10.6634 21.9091L8.73994 21.3609C8.4372 22.4232 9.05291 23.5297 10.1152 23.8325L10.6634 21.9091ZM18.127 8.91743L17.5788 10.8408L17.5788 10.8408L18.127 8.91743ZM20.5821 12.6618L18.6587 12.1136L18.6587 12.1136L20.5821 12.6618ZM18.531 14.6741L17.9765 12.7526C17.3139 12.9438 16.7966 13.4628 16.6076 14.126L18.531 14.6741ZM18.5114 14.7431L16.5879 14.195C16.3214 15.1301 16.7661 16.1214 17.6417 16.5442L18.5114 14.7431ZM19.9135 18.2023L21.8369 18.7505L19.9135 18.2023ZM15.899 20.6103L15.3508 22.5337H15.3508L15.899 20.6103ZM13.6009 18.7763L15.3805 17.8636C14.9967 17.1152 14.1856 16.6869 13.351 16.7919C12.5165 16.897 11.8369 17.513 11.6506 18.3333L13.6009 18.7763ZM13.0709 20.9893L15.013 21.467L13.0709 20.9893ZM12.7063 22.4913L12.1581 24.4147C12.6834 24.5644 13.247 24.4928 13.7182 24.2164C14.1893 23.9401 14.5269 23.4831 14.6526 22.9516L12.7063 22.4913ZM15.809 18.7788L16.3572 16.8553H16.3572L15.809 18.7788ZM14.0533 17.1889L12.1299 16.6407C12.0098 17.0622 12.0314 17.5115 12.1915 17.9195L14.0533 17.1889ZM17.9651 17.4978L19.8885 18.046V18.046L17.9651 17.4978ZM16.8083 15.3771L16.2602 17.3006H16.2602L16.8083 15.3771ZM16.1044 15.281L14.1151 15.0744C14.0572 15.6318 14.2359 16.188 14.6076 16.6075C14.9793 17.0269 15.51 17.2712 16.0704 17.2807L16.1044 15.281ZM16.267 13.7155L16.4915 11.7281C15.9614 11.6682 15.4292 11.8227 15.0135 12.1571C14.5977 12.4915 14.3329 12.9782 14.2777 13.5089L16.267 13.7155ZM18.5847 12.2865L16.6612 11.7384V11.7384L18.5847 12.2865ZM17.6845 10.5226L17.1363 12.446H17.1363L17.6845 10.5226ZM15.4795 12.4463L17.3831 13.0599L17.387 13.0477L15.4795 12.4463ZM27 16C27 22.0751 22.0751 27 16 27V31C24.2843 31 31 24.2843 31 16H27ZM16 5C22.0751 5 27 9.92487 27 16H31C31 7.71573 24.2843 1 16 1V5ZM5 16C5 9.92487 9.92487 5 16 5V1C7.71573 1 1 7.71573 1 16H5ZM16 27C9.92487 27 5 22.0751 5 16H1C1 24.2843 7.71573 31 16 31V27ZM11.6393 11.1877L8.73994 21.3609L12.5868 22.4572L15.4861 12.284L11.6393 11.1877ZM18.6752 6.99402C17.0044 6.51785 15.3881 6.70217 14.0588 7.60321C12.7884 8.46435 12.0323 9.80881 11.6393 11.1877L15.4861 12.284C15.7108 11.4957 16.0428 11.0907 16.3031 10.9143C16.5045 10.7777 16.8616 10.6364 17.5788 10.8408L18.6752 6.99402ZM22.5055 13.21C22.9526 11.6412 22.632 10.1775 21.7835 9.04367C20.9846 7.97602 19.8143 7.31867 18.6752 6.99402L17.5788 10.8408C18.0961 10.9883 18.4288 11.2368 18.581 11.4402C18.6496 11.5319 18.6827 11.6136 18.6972 11.692C18.7115 11.7691 18.7188 11.9025 18.6587 12.1136L22.5055 13.21ZM19.0856 16.5957C20.7306 16.121 21.9975 14.9923 22.5055 13.2099L18.6587 12.1136C18.5608 12.457 18.413 12.6266 17.9765 12.7526L19.0856 16.5957ZM20.4348 15.2913L20.4544 15.2223L16.6076 14.126L16.5879 14.195L20.4348 15.2913ZM21.8369 18.7505C22.5028 16.414 21.5447 13.9869 19.381 12.9421L17.6417 16.5442C17.7964 16.6188 17.9106 16.7396 17.9787 16.9026C18.0468 17.0658 18.0858 17.3183 17.99 17.6541L21.8369 18.7505ZM15.3508 22.5337C16.547 22.8746 17.9217 22.8061 19.1502 22.1733C20.4162 21.5213 21.3827 20.3441 21.8369 18.7505L17.99 17.6541C17.8148 18.2691 17.5263 18.5103 17.3186 18.6173C17.0734 18.7436 16.7556 18.7748 16.4471 18.6869L15.3508 22.5337ZM11.8213 19.6889C12.6819 21.3671 14.0785 22.1711 15.3508 22.5337L16.4471 18.6869C16.1839 18.6118 15.9776 18.5129 15.8158 18.3928C15.6624 18.2789 15.5115 18.1191 15.3805 17.8636L11.8213 19.6889ZM15.013 21.467C15.1902 20.7468 15.3736 20.0011 15.5512 19.2193L11.6506 18.3333C11.4821 19.075 11.3071 19.7868 11.1288 20.5117L15.013 21.467ZM14.6526 22.9516C14.7693 22.4581 14.8896 21.9691 15.013 21.467L11.1288 20.5117C11.006 21.0109 10.8815 21.5173 10.76 22.031L14.6526 22.9516ZM10.1152 23.8325L12.1581 24.4147L13.2544 20.5679L11.2115 19.9856L10.1152 23.8325ZM16.3572 16.8553C16.2211 16.8166 16.1416 16.7718 16.0925 16.7321C16.0555 16.7021 15.9848 16.6359 15.9151 16.4583L12.1915 17.9195C12.8663 19.6391 14.1829 20.395 15.2609 20.7022L16.3572 16.8553ZM16.0417 16.9496C16.0191 17.029 16.0023 17.0397 16.0217 17.0141C16.0429 16.9863 16.0861 16.9431 16.1526 16.9074C16.2933 16.8317 16.3848 16.8632 16.3572 16.8553L15.2609 20.7022C16.1305 20.95 17.1348 20.9208 18.0466 20.4306C18.9784 19.9296 19.5985 19.0635 19.8885 18.046L16.0417 16.9496ZM16.2602 17.3006C16.3171 17.3168 16.3018 17.3224 16.2528 17.284C16.2006 17.243 16.1433 17.1778 16.1018 17.0939C16.0182 16.925 16.071 16.8468 16.0417 16.9496L19.8885 18.046C20.1228 17.2239 20.1424 16.2408 19.6872 15.3205C19.2138 14.3633 18.3571 13.7389 17.3565 13.4537L16.2602 17.3006ZM16.0704 17.2807C16.1406 17.2819 16.1755 17.2848 16.1969 17.2874C16.2151 17.2897 16.2337 17.293 16.2602 17.3006L17.3565 13.4537C16.8691 13.3148 16.4626 13.2868 16.1385 13.2813L16.0704 17.2807ZM14.2777 13.5089L14.1151 15.0744L18.0937 15.4876L18.2563 13.9221L14.2777 13.5089ZM16.6612 11.7384C16.6365 11.8253 16.6163 11.8561 16.6189 11.852C16.6246 11.843 16.6511 11.8068 16.7027 11.7708C16.7265 11.7543 16.7484 11.7429 16.765 11.7359C16.7813 11.7291 16.7869 11.7288 16.7778 11.7306C16.758 11.7347 16.6709 11.7484 16.4915 11.7281L16.0425 15.7028C17.0782 15.8198 18.1153 15.6618 18.9894 15.0528C19.8519 14.4518 20.2912 13.5955 20.5081 12.8347L16.6612 11.7384ZM17.1363 12.446C17.0494 12.4212 16.8807 12.3388 16.7589 12.1291C16.6991 12.0261 16.6698 11.9223 16.6615 11.8368C16.6534 11.7539 16.6674 11.7168 16.6612 11.7384L20.5081 12.8347C20.7688 11.9197 20.7024 10.9546 20.2181 10.1206C19.7484 9.31176 18.9959 8.81669 18.2326 8.59917L17.1363 12.446ZM17.387 13.0477C17.4733 12.7738 17.5585 12.5808 17.6296 12.4528C17.7018 12.3226 17.7409 12.2933 17.7213 12.3109C17.6933 12.3361 17.6015 12.4052 17.4485 12.4415C17.2935 12.4783 17.1767 12.4575 17.1363 12.446L18.2326 8.59917C17.0567 8.26403 15.9138 8.55709 15.0471 9.33627C14.2947 10.0127 13.8522 10.9564 13.5721 11.8449L17.387 13.0477ZM15.9767 17.737C16.4339 16.1327 16.8774 14.6286 17.3831 13.0599L13.576 11.8327C13.0507 13.4625 12.5932 15.015 12.1299 16.6407L15.9767 17.737Z" fill="#848492" mask="url(#path-1-inside-1_996_2353)"/>
</svg>
