<svg width="1016" height="683" viewBox="0 0 1016 683" fill="none" xmlns="http://www.w3.org/2000/svg">
<path d="M0 496C0 487.163 7.16344 480 16 480H1016V595H16C7.16344 595 0 587.837 0 579V496Z" fill="#212123"/>
<path d="M215.885 60H51.2603C48.3376 59.9984 45.4432 60.5716 42.7425 61.6869C40.0419 62.8021 37.5878 64.4375 35.5206 66.4996C33.4534 68.5618 31.8135 71.0102 30.6947 73.7051C29.5758 76.4001 29 79.2886 29 82.2057V151.828V173.273H32.7483C38.448 173.273 43.9144 171.014 47.9458 166.993C51.9772 162.971 54.2437 157.516 54.2469 151.828H215.885C218.807 151.829 221.702 151.256 224.403 150.141C227.103 149.026 229.557 147.39 231.624 145.328C233.692 143.266 235.332 140.817 236.45 138.123C237.569 135.428 238.145 132.539 238.145 129.622V82.2057C238.145 79.2886 237.569 76.4001 236.45 73.7051C235.332 71.0102 233.692 68.5618 231.624 66.4996C229.557 64.4375 227.103 62.8021 224.403 61.6869C221.702 60.5716 218.807 59.9984 215.885 60Z" fill="#DCDCFF"/>
<path d="M73.6052 129.9C85.9994 129.9 96.0469 119.871 96.0469 107.501C96.0469 95.1303 85.9994 85.1021 73.6052 85.1021C61.211 85.1021 51.1636 95.1303 51.1636 107.501C51.1636 119.871 61.211 129.9 73.6052 129.9Z" fill="#F3F3FF"/>
<path d="M114.281 93.224H209.646" stroke="#F3F3FF" stroke-width="3" stroke-miterlimit="10"/>
<path d="M114.281 107.778H203.201" stroke="#F3F3FF" stroke-width="3" stroke-miterlimit="10"/>
<path d="M114.281 122.345H170.663" stroke="#F3F3FF" stroke-width="3" stroke-miterlimit="10"/>
<path d="M964.144 159.217H844.319C842.191 159.217 840.084 159.635 838.118 160.448C836.153 161.261 834.366 162.452 832.862 163.954C831.357 165.455 830.164 167.238 829.35 169.2C828.535 171.162 828.116 173.265 828.116 175.389V226.075V241.68H830.837C834.991 241.68 838.976 240.038 841.922 237.114C844.867 234.19 846.533 230.222 846.556 226.075H964.181C968.478 226.075 972.599 224.372 975.638 221.339C978.676 218.306 980.383 214.193 980.383 209.904V175.389C980.383 173.262 979.963 171.156 979.147 169.192C978.33 167.227 977.133 165.443 975.625 163.941C974.116 162.439 972.326 161.248 970.356 160.438C968.386 159.627 966.275 159.212 964.144 159.217Z" fill="#DCDCFF"/>
<path d="M860.594 210.109C869.616 210.109 876.929 202.809 876.929 193.805C876.929 184.8 869.616 177.5 860.594 177.5C851.572 177.5 844.258 184.8 844.258 193.805C844.258 202.809 851.572 210.109 860.594 210.109Z" fill="#F3F3FF"/>
<path d="M890.206 183.402H959.647" stroke="#F3F3FF" stroke-width="3" stroke-miterlimit="10"/>
<path d="M890.206 194.01H954.955" stroke="#F3F3FF" stroke-width="3" stroke-miterlimit="10"/>
<path d="M890.206 204.606H931.256" stroke="#F3F3FF" stroke-width="3" stroke-miterlimit="10"/>
<path d="M364.772 45H467.041C470.708 45 474.224 46.4529 476.818 49.0395C479.412 51.626 480.871 55.1345 480.874 58.7941V102.059V115.334H478.552C475.018 115.334 471.628 113.938 469.122 111.45C466.616 108.963 465.198 105.586 465.179 102.059H364.82C361.155 102.059 357.64 100.606 355.048 98.0187C352.456 95.4318 351 91.9233 351 88.2649V58.7941C351 55.144 352.449 51.6427 355.031 49.0572C357.612 46.4717 361.115 45.0128 364.772 45Z" fill="#DCDCFF"/>
<path d="M378.665 88.4338C386.365 88.4338 392.607 82.204 392.607 74.5191C392.607 66.8342 386.365 60.6043 378.665 60.6043C370.966 60.6043 364.724 66.8342 364.724 74.5191C364.724 82.204 370.966 88.4338 378.665 88.4338Z" fill="#F3F3FF"/>
<path d="M403.936 65.6489H463.208" stroke="#F3F3FF" stroke-width="3" stroke-miterlimit="10"/>
<path d="M403.936 74.688H459.194" stroke="#F3F3FF" stroke-width="3" stroke-miterlimit="10"/>
<path d="M403.936 83.7393H438.977" stroke="#F3F3FF" stroke-width="3" stroke-miterlimit="10"/>
<path d="M534.646 458.535L686.32 484.663L720.914 512.794C720.914 512.794 722.752 540.551 720.454 554.2C720.454 554.2 722.159 578.337 717.565 581.861C712.97 585.385 631.377 582.114 573.955 571.229C516.533 560.343 464.552 538.789 461.505 534.867C458.458 530.945 458.446 506.844 458.446 506.844V504.431C461.021 495.114 486.546 472.486 486.546 472.486L514.562 455.457L534.646 458.535Z" fill="white"/>
<path d="M498.081 433.035C498.081 433.035 506.836 394.151 513.377 368.493C519.918 342.836 526.677 313.341 532.324 308.635C537.971 303.928 602.454 279.55 602.454 279.55L671.073 274.662C671.073 274.662 747.527 291.498 763.693 308.019C779.859 324.541 828.237 444.62 829.543 455.711C830.849 466.802 826.605 488.295 819.084 492.266C811.563 496.236 795.868 495.198 789.992 495.524C786.729 495.87 783.532 496.683 780.5 497.938L776.873 498.3C776.873 498.3 753.573 489.538 746.826 490.987C740.079 492.435 736.342 490.987 736.342 490.987C735.351 491.324 730.901 496.297 730.164 497.021L724.686 510.73C724.059 511.376 723.307 511.887 722.475 512.234C721.644 512.58 720.751 512.754 719.85 512.746C713.405 512.661 698.085 512.504 695.534 512.746C693.37 512.746 691.218 512.425 689.15 511.792C687.87 511.453 686.719 510.744 685.841 509.754C684.963 508.764 684.398 507.538 684.216 506.229L682.403 492.954C682.236 491.738 682.409 490.5 682.902 489.376C683.395 488.252 684.188 487.285 685.196 486.582C688.727 484.168 681.315 487.523 686.332 484.639L534.658 458.487L534.537 460.707C534.572 461.307 534.439 461.905 534.153 462.433C533.867 462.962 533.439 463.401 532.917 463.7L528.89 466.005C528.252 466.369 527.508 466.507 526.781 466.395C526.055 466.283 525.387 465.929 524.888 465.39L523.256 463.64C522.706 463.035 522.4 462.248 522.397 461.431C522.398 460.806 522.218 460.194 521.878 459.668C521.537 459.143 521.052 458.728 520.48 458.472C519.908 458.217 519.274 458.133 518.655 458.229C518.036 458.326 517.459 458.6 516.992 459.018L513.135 462.433C512.574 462.933 512.203 463.611 512.083 464.352L510.801 472.486C510.667 473.318 510.213 474.066 509.536 474.571C508.859 475.075 508.012 475.297 507.174 475.189L478.626 471.388C477.981 471.306 477.375 471.032 476.887 470.601C476.4 470.171 476.054 469.604 475.894 468.974L474.769 464.267C474.574 463.421 474.722 462.532 475.18 461.793L484.853 446.479V446.418L480.899 446.322C480.899 446.322 483.741 437.403 492.024 434.579C493.992 434.038 496.028 433.786 498.069 433.831" fill="white"/>
<path d="M548.587 126.234C548.587 126.234 543.267 188.543 551.743 216.119C560.219 243.695 576.942 260.482 603.095 260.482C629.249 260.482 645.693 249.958 660.795 236.345C667.929 229.925 677.82 213.416 682.935 208.794C682.935 208.794 707.928 187.614 712.825 178.43C717.722 169.246 717.734 139.256 717.734 139.256L709.27 132.377L632.127 96.486H574.378L548.418 120.333L548.587 126.234Z" fill="white" stroke="#212123" stroke-width="3" stroke-linecap="round" stroke-linejoin="round"/>
<path d="M764.104 478.025C765.775 479.512 767.327 481.126 768.748 482.852C767.499 480.981 765.927 479.347 764.104 478.025Z" fill="#4343C4"/>
<path d="M762.267 476.782C758.18 474.308 752.279 472.389 743.827 471.762C750.151 472.701 756.341 474.386 762.267 476.782Z" fill="#4343C4"/>
<path d="M727.504 472.051C722.873 472.425 716.525 473.065 710.854 474.079C715.896 473.463 722.05 473.234 727.504 472.051Z" fill="#4343C4"/>
<path d="M697.904 478.327L703.865 475.66C702.34 476.085 700.864 476.672 699.464 477.41L697.904 478.327Z" fill="#4343C4"/>
<path d="M829.604 455.699C828.298 444.608 779.92 324.541 763.754 308.007C762.278 306.566 760.657 305.28 758.917 304.169C742.146 296.928 719.016 290.689 719.016 290.689L670.65 279.538C668.365 285.693 659.211 298.787 654.931 304.085C649.853 310.372 636.31 321.741 632.622 320.667C628.935 319.593 625.537 289.41 625.537 289.41C625.537 290.339 619.213 298.859 616.081 304.845C612.95 310.831 608.331 321.668 606.408 321.898C604.486 322.127 596.892 309.226 598.742 295.866C599.323 291.703 599.879 288.42 600.459 285.825C588.295 289.205 552.094 303.614 540.172 311.579C527.125 320.28 502.761 433.614 502.761 433.614L537.536 438.803C537.536 438.803 536.738 442.677 534.984 449.001C533.231 455.325 537.064 457.907 537.064 457.907L686.32 484.663C686.32 484.663 694.881 479.666 697.904 478.303L699.464 477.386C700.588 476.746 702.112 477.494 703.865 476.975V475.636C705.655 474.839 712.849 475.189 715.594 474.851C721.277 473.837 722.849 472.438 727.48 472.027C728.108 471.895 728.689 471.75 729.33 471.581C732.957 470.603 738.362 470.881 743.839 471.738C752.303 472.365 758.192 474.284 762.279 476.758C762.937 477.086 763.554 477.492 764.117 477.965C765.939 479.286 767.511 480.921 768.76 482.792C773.499 488.368 769.691 497.033 774.733 497.407C780.573 497.841 808.045 494.824 819.471 491.952C826.786 487.728 830.897 466.657 829.604 455.699Z" fill="#2727AD"/>
<path d="M609.213 178.454C611.35 178.454 613.083 175.736 613.083 172.384C613.083 169.031 611.35 166.313 609.213 166.313C607.077 166.313 605.344 169.031 605.344 172.384C605.344 175.736 607.077 178.454 609.213 178.454Z" fill="#212123"/>
<path d="M563.834 178.454C565.971 178.454 567.704 175.736 567.704 172.384C567.704 169.031 565.971 166.313 563.834 166.313C561.697 166.313 559.965 169.031 559.965 172.384C559.965 175.736 561.697 178.454 563.834 178.454Z" fill="#212123"/>
<path d="M581.222 167.267C581.222 167.267 579.19 184.922 577.534 189.883C575.877 194.843 573.108 203.858 574.958 205.149C576.808 206.44 585.272 207.357 585.272 207.357" stroke="#212123" stroke-width="3" stroke-linecap="round" stroke-linejoin="round"/>
<path d="M569.795 218.641C573.995 222.65 579.474 225.055 585.272 225.436C594.849 225.991 607.557 220.162 607.557 220.162" stroke="#212123" stroke-width="3" stroke-linecap="round" stroke-linejoin="round"/>
<path d="M605.356 145.351C609.908 144.38 614.613 144.38 619.165 145.351C623.155 146.17 626.888 147.937 630.047 150.504" stroke="#212123" stroke-width="3" stroke-linecap="round" stroke-linejoin="round"/>
<path d="M578.09 144.783C578.09 144.783 569.094 143.021 562.371 144.24C555.649 145.459 553.267 147.644 553.267 147.644" stroke="#212123" stroke-width="3" stroke-linecap="round" stroke-linejoin="round"/>
<path d="M696.356 159.012C696.356 159.012 697.191 160.858 696.719 164.937C696.586 167.124 695.737 169.206 694.301 170.863" stroke="#212123" stroke-width="3" stroke-linecap="round" stroke-linejoin="round"/>
<path d="M605.006 276.991C607.726 275.785 611.293 282.398 615.888 284.232C620.483 286.067 625.464 288.493 625.464 289.41C625.464 290.327 619.141 298.859 616.009 304.845C612.877 310.831 608.258 321.668 606.336 321.898C604.413 322.127 596.82 309.226 598.67 295.866C600.52 282.507 602.285 278.138 605.006 276.991Z" fill="white" stroke="#212123" stroke-width="3" stroke-linecap="round" stroke-linejoin="round"/>
<path d="M625.489 289.422C625.489 289.422 628.874 319.593 632.574 320.679C636.274 321.765 649.804 310.384 654.883 304.097C659.961 297.809 672.016 280.395 671.085 276.859C670.154 273.323 669.187 272.116 662.271 270.463C655.354 268.809 653.444 269.075 650.88 270.463C648.317 271.85 643.19 279.067 639.188 281.674C635.186 284.281 625.489 289.422 625.489 289.422Z" fill="white" stroke="#212123" stroke-width="3" stroke-linecap="round" stroke-linejoin="round"/>
<path d="M602.515 279.502C602.515 279.502 537.995 303.868 532.385 308.586C526.774 313.305 519.967 342.776 513.437 368.445C506.908 394.114 498.142 432.986 498.142 432.986" stroke="#212123" stroke-width="3" stroke-linecap="round" stroke-linejoin="round"/>
<path d="M692.632 488.187C692.632 488.187 706.356 486.232 710.878 487.873C714.142 488.958 717.503 489.73 720.914 490.178" stroke="#212123" stroke-width="3" stroke-linecap="round" stroke-linejoin="round"/>
<path d="M692.632 511.454V502.294" stroke="#212123" stroke-width="3" stroke-linecap="round" stroke-linejoin="round"/>
<path d="M703.417 511.454V502.294" stroke="#212123" stroke-width="3" stroke-linecap="round" stroke-linejoin="round"/>
<path d="M714.203 511.454V502.294" stroke="#212123" stroke-width="3" stroke-linecap="round" stroke-linejoin="round"/>
<path d="M484.817 446.466L475.144 461.781C474.686 462.52 474.538 463.409 474.733 464.255L475.857 468.962C476.017 469.592 476.364 470.159 476.851 470.589C477.338 471.02 477.944 471.294 478.59 471.376L507.114 475.201C507.952 475.309 508.799 475.087 509.476 474.583C510.153 474.078 510.607 473.33 510.741 472.498L512.023 464.364C512.142 463.623 512.514 462.945 513.075 462.445L516.932 459.03C517.398 458.612 517.976 458.338 518.595 458.241C519.214 458.145 519.848 458.229 520.42 458.484C520.992 458.74 521.477 459.155 521.817 459.68C522.158 460.206 522.338 460.818 522.337 461.443V461.443C522.34 462.26 522.646 463.047 523.195 463.652L524.828 465.402C525.327 465.941 525.994 466.295 526.721 466.407C527.448 466.519 528.191 466.381 528.83 466.017L532.856 463.712C533.378 463.413 533.806 462.974 534.092 462.445C534.379 461.917 534.512 461.319 534.476 460.719L533.654 446.43" stroke="#212123" stroke-width="3" stroke-linecap="round" stroke-linejoin="round"/>
<path d="M501.503 474.175L502.736 462.879" stroke="#212123" stroke-width="3" stroke-linecap="round" stroke-linejoin="round"/>
<path d="M491.491 472.257L492.955 461.323" stroke="#212123" stroke-width="3" stroke-linecap="round" stroke-linejoin="round"/>
<path d="M482.217 471.52L484.019 460.188" stroke="#212123" stroke-width="3" stroke-linecap="round" stroke-linejoin="round"/>
<path d="M776.945 498.324C776.945 498.324 753.645 489.562 746.898 491.011C740.151 492.459 736.415 491.011 736.415 491.011" stroke="#212123" stroke-width="3" stroke-linecap="round" stroke-linejoin="round"/>
<path d="M720.914 512.818C720.914 512.818 723.876 557.471 717.564 561.429C711.253 565.388 624.098 560.488 578.102 551.328C532.106 542.168 461.505 513.651 458.397 506.868C455.29 500.086 486.498 472.474 486.498 472.474" stroke="#212123" stroke-width="3" stroke-linecap="round" stroke-linejoin="round"/>
<path d="M458.446 506.868C458.446 506.868 458.446 531.005 461.505 534.891C464.564 538.777 516.521 560.379 573.955 571.253C631.389 582.126 713.006 585.361 717.564 581.885C722.123 578.409 720.454 554.224 720.454 554.224" stroke="#212123" stroke-width="3" stroke-linecap="round" stroke-linejoin="round"/>
<path d="M605.562 260.47C629.055 259.867 644.569 250.55 658.595 238.325V269.702C654.532 268.99 652.924 269.388 650.88 270.487C648.317 271.862 643.19 279.091 639.188 281.698C635.186 284.305 625.488 289.446 625.488 289.446C625.488 288.529 620.531 286.115 615.912 284.269C611.293 282.422 608.282 275.314 605.562 276.461V260.47Z" fill="white" stroke="#212123" stroke-width="3" stroke-linecap="round" stroke-linejoin="round"/>
<path d="M534.646 458.535L686.32 484.687" stroke="#212123" stroke-width="3" stroke-linecap="round" stroke-linejoin="round"/>
<path d="M476.414 506.868C476.414 506.868 554.839 525.864 587.933 533.045C621.027 540.225 699.464 549.94 699.464 549.94" stroke="#212123" stroke-linecap="round" stroke-linejoin="round"/>
<path d="M483.729 493.593C483.729 493.593 562.154 512.589 595.248 519.769C628.342 526.95 706.767 536.665 706.767 536.665" stroke="#212123" stroke-linecap="round" stroke-linejoin="round"/>
<path d="M489.787 480.728C489.787 480.728 568.211 499.736 601.306 506.905C634.4 514.073 712.825 523.8 712.825 523.8" stroke="#212123" stroke-linecap="round" stroke-linejoin="round"/>
<path d="M519.036 472.196C519.036 472.196 568.211 484.156 601.257 491.337C634.303 498.517 677.143 503.55 677.143 503.55" stroke="#212123" stroke-linecap="round" stroke-linejoin="round"/>
<path d="M519.036 523.8L548.454 472.196" stroke="#212123" stroke-linecap="round" stroke-linejoin="round"/>
<path d="M585.067 539.573L605.562 484.687" stroke="#212123" stroke-linecap="round" stroke-linejoin="round"/>
<path d="M653.396 549.94L665.16 493.593" stroke="#212123" stroke-linecap="round" stroke-linejoin="round"/>
<path d="M632.091 489.043L620.434 546.645" stroke="#212123" stroke-linecap="round" stroke-linejoin="round"/>
<path d="M572.25 478.339L552.553 533.153" stroke="#212123" stroke-linecap="round" stroke-linejoin="round"/>
<path d="M537.898 437.102C539.108 427.785 539.785 411.432 542.143 391.761C545.625 362.616 548.454 350.874 548.454 350.874" stroke="white" stroke-width="2" stroke-miterlimit="10" stroke-linecap="round"/>
<path d="M717.564 465.619C717.564 465.619 728.918 451.801 732.183 451.475C735.448 451.149 735.81 455.88 741.856 456.701C747.902 457.521 758.784 457.787 762.291 461.323" stroke="white" stroke-width="2" stroke-miterlimit="10" stroke-linecap="round"/>
<path d="M722.703 367.6C722.703 367.6 724.831 391.266 728.096 406.919C731.361 422.571 741.989 436.293 741.832 438.9C741.675 441.507 736.113 443.305 736.113 445.103C736.113 446.901 739.873 448.723 740.03 449.665C740.187 450.606 736.161 452.271 736.161 452.271" stroke="white" stroke-width="2" stroke-miterlimit="10" stroke-linecap="round"/>
<path d="M754.093 449.52C754.093 449.52 766.511 445.899 775.011 446.901C783.511 447.903 799.689 460.116 799.689 460.116" stroke="white" stroke-width="2" stroke-miterlimit="10" stroke-linecap="round"/>
<path d="M722.703 467.14C718.979 465.667 711.749 465.51 709.137 466.971C706.525 468.431 713.502 472.812 710.346 474.212" stroke="white" stroke-width="2" stroke-miterlimit="10" stroke-linecap="round"/>
<path d="M671.134 274.674C671.134 274.674 747.588 291.51 763.754 308.031C779.92 324.553 828.298 444.632 829.604 455.723C830.91 466.814 826.665 488.307 819.145 492.278C811.624 496.248 795.929 495.21 790.053 495.536C786.789 495.882 783.592 496.695 780.561 497.95C779.573 498.349 778.503 498.506 777.442 498.406C776.381 498.307 775.359 497.954 774.463 497.378C773.567 496.802 772.823 496.019 772.293 495.096C771.763 494.172 771.464 493.136 771.42 492.073V491.904C771.42 486.678 768.639 470.326 734.142 471.569C734.142 471.569 707.396 472.775 699.464 477.374C694.434 480.27 688.714 484.144 685.184 486.594C684.176 487.297 683.383 488.264 682.89 489.388C682.397 490.512 682.224 491.75 682.391 492.966L684.204 506.241C684.386 507.55 684.952 508.776 685.829 509.766C686.707 510.756 687.858 511.465 689.138 511.804C691.206 512.437 693.358 512.758 695.522 512.758C698.122 512.504 713.393 512.661 719.838 512.758C720.739 512.766 721.632 512.592 722.463 512.246C723.295 511.899 724.047 511.388 724.674 510.742L730.152 497.033C730.889 496.272 735.339 491.3 736.33 490.999L770.513 486.678" stroke="#212123" stroke-width="3" stroke-linecap="round" stroke-linejoin="round"/>
<path d="M677.905 215.443C683.201 206.428 689.113 195.941 695.546 191.307C707.637 182.473 711.736 174.797 713.949 166.337C716.162 157.877 720.091 143.83 706.005 137.241C691.919 130.651 679.888 153.931 679.888 153.931C679.888 153.931 668.473 149.104 663.879 139.123C659.284 129.143 655.028 117.4 655.028 117.4C644.145 119.174 634.4 132.546 634.4 132.546C631.268 130.893 627.217 116 627.217 116C627.217 116 620.579 120.598 615.61 124.641C610.64 128.684 593.845 136.227 593.845 136.227C593.845 136.227 596.795 130.519 599.008 125.003C601.221 119.488 598.911 111.487 598.911 111.487C598.911 111.487 580.956 125.003 563.544 126.934C546.132 128.865 530.656 119.211 530.656 119.211C530.656 119.211 543.642 109.834 550.28 101.567C554.695 95.8217 558.493 89.6288 561.609 83.0902C554.739 84.0002 547.816 84.4598 540.885 84.466C532.59 84.1884 524.029 79.2283 524.029 79.2283C524.029 79.2283 545.576 70.6719 552.493 66.2549C559.409 61.8379 573.217 50.8196 573.217 50.8196C573.217 50.8196 561.888 48.8887 557.498 47.1991C553.109 45.5096 547.003 37.5445 547.003 37.5445C547.003 37.5445 569.735 34.0084 581.343 34.0084C592.95 34.0084 596.735 34.0085 605.03 31.1965C613.324 28.3846 626.794 20.1661 648.136 21.2643C669.477 22.3626 676.321 36.4342 676.321 36.4342C676.321 36.4342 693.454 26.7795 712.522 41.4063C731.59 56.0331 740.151 97.3912 740.151 97.3912C740.151 97.3912 736.524 94.362 727.721 93.7707C727.721 93.7707 736.282 106.177 736.004 117.762C735.767 124.981 734.176 132.092 731.312 138.725C730.343 135.924 728.62 133.444 726.331 131.556C726.331 131.556 730.393 162.994 716.936 181.568" fill="#212123"/>
<path d="M532.082 437.826C532.082 437.826 500.27 431.731 491.987 434.567C483.704 437.403 480.863 446.31 480.863 446.31C480.863 446.31 532.034 447.782 535.456 445.272C536.58 444.463 537.306 441.651 537.874 437.102" stroke="#212123" stroke-width="3" stroke-linecap="round" stroke-linejoin="round"/>
<g style="mix-blend-mode:soft-light" opacity="0.8">
<path d="M562.928 286.743V631.896C562.93 633.616 562.575 635.318 561.884 636.893C561.193 638.469 560.182 639.884 558.915 641.049C557.647 642.215 556.151 643.104 554.521 643.662C552.891 644.22 551.163 644.434 549.446 644.29C515.59 641.43 421.905 628.855 310.761 574.294C194.684 517.235 143.452 476.022 129.39 463.664C128.069 462.496 127.012 461.062 126.289 459.456C125.566 457.849 125.193 456.108 125.194 454.347V149.719C125.19 147.432 125.819 145.188 127.012 143.235C128.205 141.282 129.914 139.696 131.953 138.651C133.991 137.606 136.279 137.144 138.565 137.314C140.85 137.485 143.043 138.282 144.903 139.618C173.113 159.808 232.675 196.496 330.736 229.611C443.863 267.82 522.071 273.624 550.8 274.336C554.042 274.421 557.123 275.765 559.387 278.082C561.652 280.399 562.922 283.506 562.928 286.743Z" fill="#DCDCFF"/>
</g>
<path d="M95.9695 232.628V345.165C95.9695 345.165 113.949 358.356 130.515 365.681C141.832 370.702 166.233 378.739 180.549 383.313C181.824 383.731 183.181 383.839 184.507 383.63C185.833 383.42 187.09 382.899 188.175 382.109C189.259 381.319 190.14 380.283 190.744 379.087C191.348 377.89 191.658 376.567 191.649 375.227V267.82C191.657 266.104 191.143 264.427 190.173 263.01C189.203 261.594 187.824 260.506 186.22 259.891C173.753 255.063 143.005 242.995 128.181 235.814C120.72 232.194 114.106 228.477 108.835 225.351C107.547 224.569 106.073 224.144 104.566 224.12C103.058 224.097 101.572 224.475 100.26 225.217C98.9482 225.959 97.859 227.037 97.1047 228.34C96.3503 229.643 95.9585 231.124 95.9695 232.628Z" fill="#F3F3FF"/>
<path d="M110.999 299.921C110.994 299.077 111.221 298.247 111.655 297.521C112.089 296.796 112.714 296.204 113.461 295.808C114.209 295.413 115.051 295.229 115.896 295.278C116.741 295.326 117.557 295.605 118.254 296.083C123.318 299.509 128.565 302.655 133.973 305.509C144.662 311.145 161.299 316.189 168.373 318.217C169.338 318.494 170.187 319.078 170.791 319.879C171.395 320.68 171.722 321.655 171.722 322.658V362.085C171.724 362.807 171.556 363.519 171.233 364.165C170.91 364.811 170.44 365.372 169.861 365.805C169.282 366.237 168.61 366.529 167.898 366.656C167.186 366.784 166.455 366.743 165.761 366.538C154.183 363.163 142.807 359.134 131.688 354.47C125.009 351.456 118.776 347.541 113.164 342.836C112.501 342.417 111.955 341.838 111.577 341.152C111.198 340.467 111 339.697 110.999 338.914V299.921Z" fill="#DCDCFF"/>
<path d="M126.899 270.511C126.899 279.864 122.776 286.622 117.613 284.329C112.45 282.036 109.887 274.409 109.887 265.02C109.887 255.631 112.45 247.243 118.351 250.429C124.251 253.615 126.899 261.158 126.899 270.511Z" fill="#DCDCFF"/>
<path d="M133.683 269.171C138.789 272.727 144.261 275.728 150.006 278.126C157.091 280.862 164.365 283.084 171.771 284.776" stroke="#DCDCFF" stroke-width="3" stroke-linecap="round" stroke-linejoin="round"/>
<path d="M133.683 281.602C138.789 285.157 144.261 288.159 150.006 290.556C152.424 291.534 154.843 292.427 157.382 293.235" stroke="#DCDCFF" stroke-width="3" stroke-linecap="round" stroke-linejoin="round"/>
<path d="M359.284 306.209C359.283 303.787 359.881 301.401 361.024 299.265C362.166 297.128 363.819 295.305 365.836 293.958C367.853 292.611 370.172 291.78 372.587 291.541C375.002 291.301 377.439 291.659 379.682 292.584C391.556 297.471 406.707 303.445 419.814 307.886C445.967 316.708 485.361 326.834 485.385 326.834V413.725C485.386 416.631 484.733 419.501 483.473 422.121C482.214 424.741 480.381 427.046 478.109 428.863C475.837 430.681 473.185 431.966 470.349 432.624C467.512 433.281 464.564 433.293 461.722 432.66C447.007 429.414 427.963 424.563 412.244 418.48C381.907 406.726 359.308 394.995 359.284 394.971V306.209Z" fill="#F3F3FF"/>
<path d="M399.899 355.665C399.899 366.526 395.063 374.431 389.017 371.752C382.971 369.073 380.021 360.19 380.021 349.293C380.021 338.395 383.007 328.571 389.936 332.288C396.864 336.005 399.899 344.767 399.899 355.665Z" fill="#DCDCFF"/>
<path d="M412.244 353.698C412.244 353.698 420.285 357.765 431.264 362.314C439.491 365.502 447.936 368.096 456.535 370.074" stroke="#DCDCFF" stroke-width="3" stroke-linecap="round" stroke-linejoin="round"/>
<path d="M412.244 368.18C412.244 368.18 420.285 372.247 431.264 376.796C434.009 377.931 436.959 378.981 439.849 379.922" stroke="#DCDCFF" stroke-width="3" stroke-linecap="round" stroke-linejoin="round"/>
<path d="M221.249 397.554V569.636C221.249 570.875 221.544 572.097 222.109 573.2C222.674 574.304 223.494 575.258 224.501 575.983C250.059 594.018 276.828 610.28 304.619 624.655C345.173 645.726 423.804 672.771 451.952 682.209C453.132 682.603 454.389 682.712 455.62 682.526C456.85 682.339 458.018 681.863 459.027 681.137C460.036 680.41 460.858 679.454 461.423 678.348C461.988 677.241 462.282 676.017 462.279 674.775V488.054C462.278 486.421 461.767 484.828 460.815 483.5C459.863 482.171 458.519 481.172 456.97 480.644C437.479 474.031 368.703 450.57 325.803 434.784C289.686 421.509 251.574 401.138 232.917 390.711C231.722 390.046 230.374 389.705 229.007 389.72C227.639 389.736 226.3 390.108 225.12 390.799C223.941 391.491 222.964 392.478 222.285 393.663C221.605 394.847 221.248 396.189 221.249 397.554Z" fill="#F3F3FF"/>
<path d="M241.296 535.808V566.437C241.302 567.216 241.496 567.981 241.863 568.668C242.229 569.355 242.757 569.944 243.4 570.384C264.686 584.58 286.715 597.633 309.395 609.485C341.026 625.922 400.08 647.573 419.427 654.572C420.148 654.818 420.918 654.889 421.673 654.782C422.427 654.674 423.146 654.389 423.769 653.952C424.393 653.514 424.904 652.935 425.261 652.263C425.618 651.591 425.81 650.844 425.823 650.083V618.44C425.816 617.489 425.527 616.561 424.994 615.773C424.461 614.985 423.706 614.372 422.824 614.011C408.061 608.121 342.489 581.776 311.015 566.667C289.611 556.135 268.785 544.472 248.624 531.729C247.894 531.291 247.062 531.054 246.21 531.04C245.359 531.026 244.52 531.237 243.776 531.651C243.033 532.065 242.412 532.667 241.977 533.397C241.541 534.127 241.306 534.959 241.296 535.808Z" fill="#DCDCFF"/>
<path d="M399.137 490.528C403.37 492.742 407.829 494.494 412.438 495.753C420.974 498.167 425.847 499.374 425.847 499.374" stroke="#DCDCFF" stroke-width="3" stroke-linecap="round" stroke-linejoin="round"/>
<path d="M399.137 504.986C403.369 507.198 407.828 508.946 412.438 510.199C420.974 512.673 425.847 513.82 425.847 513.82" stroke="#DCDCFF" stroke-width="3" stroke-linecap="round" stroke-linejoin="round"/>
<path d="M413.744 525.031C421.482 527.24 425.835 528.229 425.835 528.229" stroke="#DCDCFF" stroke-width="3" stroke-linecap="round" stroke-linejoin="round"/>
<path d="M413.744 539.477C421.482 541.685 425.835 542.675 425.835 542.675" stroke="#DCDCFF" stroke-width="3" stroke-linecap="round" stroke-linejoin="round"/>
<path d="M205.88 173.156V216.831C205.879 219.327 206.524 221.781 207.753 223.954C208.982 226.128 210.752 227.948 212.893 229.237C220.886 234.065 236.266 241.668 261.706 248.547C283.084 254.363 300.919 258.406 313.071 260.953C315.183 261.394 317.368 261.36 319.465 260.852C321.563 260.344 323.52 259.376 325.195 258.018C326.871 256.659 328.221 254.945 329.148 252.999C330.075 251.054 330.556 248.927 330.555 246.773V203.17C330.552 199.766 329.349 196.472 327.156 193.865C324.962 191.259 321.919 189.507 318.56 188.917C292.951 184.391 290.339 183.523 268.212 176.161C255.105 171.792 238.709 165.167 226.025 159.808C223.819 158.881 221.417 158.512 219.034 158.735C216.65 158.959 214.359 159.767 212.365 161.088C210.371 162.41 208.735 164.203 207.603 166.309C206.472 168.414 205.88 170.767 205.88 173.156Z" fill="#F3F3FF"/>
<path d="M226.303 190.655C238.763 196.381 251.583 201.295 264.681 205.366C283.519 210.942 306.747 216.819 306.747 216.819" stroke="#DCDCFF" stroke-width="3" stroke-linecap="round" stroke-linejoin="round"/>
<path d="M226.303 206.078C226.303 206.078 236.423 212.692 255.322 218.267" stroke="#DCDCFF" stroke-width="3" stroke-linecap="round" stroke-linejoin="round"/>
</svg>