<svg width="427" height="287" viewBox="0 0 427 287" fill="none" xmlns="http://www.w3.org/2000/svg">
<path d="M0 217.698C0 208.862 7.16344 201.698 16 201.698H427V250.022H16C7.16343 250.022 0 242.858 0 234.022V217.698Z" fill="#212123"/>
<path d="M405.207 66.9039H354.847C353.952 66.9039 353.067 67.0796 352.241 67.4211C351.415 67.7626 350.664 68.2632 350.032 68.8942C349.399 69.5252 348.898 70.2743 348.555 71.0988C348.213 71.9232 348.037 72.8069 348.037 73.6992V94.9981V101.555H349.18C350.926 101.555 352.601 100.865 353.839 99.6368C355.077 98.4081 355.777 96.7404 355.787 94.9981H405.222C407.028 94.9981 408.76 94.2822 410.037 93.0078C411.314 91.7334 412.031 90.005 412.031 88.2027V73.6992C412.031 72.8056 411.855 71.9207 411.512 71.0952C411.168 70.2698 410.665 69.52 410.031 68.8888C409.397 68.2576 408.645 67.7574 407.817 67.4168C406.989 67.0762 406.102 66.9019 405.207 66.9039Z" fill="#DCDCFF"/>
<path d="M361.686 88.289C365.478 88.289 368.552 85.2216 368.552 81.4378C368.552 77.654 365.478 74.5867 361.686 74.5867C357.895 74.5867 354.821 77.654 354.821 81.4378C354.821 85.2216 357.895 88.289 361.686 88.289Z" fill="#F3F3FF"/>
<path d="M374.132 77.0665H403.316" stroke="#F3F3FF" stroke-width="3" stroke-miterlimit="10"/>
<path d="M374.132 81.524H401.344" stroke="#F3F3FF" stroke-width="3" stroke-miterlimit="10"/>
<path d="M374.132 85.9765H391.384" stroke="#F3F3FF" stroke-width="3" stroke-miterlimit="10"/>
<path d="M153.305 18.9093H196.286C197.827 18.9093 199.305 19.5198 200.395 20.6067C201.485 21.6936 202.098 23.1679 202.099 24.7056V42.8857V48.464H201.124C199.638 48.464 198.213 47.8773 197.16 46.832C196.107 45.7868 195.511 44.368 195.503 42.8857H153.325C151.784 42.8857 150.307 42.2751 149.218 41.188C148.129 40.101 147.517 38.6267 147.517 37.0894V24.7056C147.517 23.1719 148.126 21.7006 149.211 20.6142C150.296 19.5277 151.768 18.9147 153.305 18.9093Z" fill="#DCDCFF"/>
<path d="M159.144 37.1604C162.38 37.1604 165.003 34.5426 165.003 31.3134C165.003 28.0841 162.38 25.4663 159.144 25.4663C155.908 25.4663 153.284 28.0841 153.284 31.3134C153.284 34.5426 155.908 37.1604 159.144 37.1604Z" fill="#F3F3FF"/>
<path d="M169.765 27.586H194.675" stroke="#F3F3FF" stroke-width="3" stroke-miterlimit="10"/>
<path d="M169.765 31.3844H192.988" stroke="#F3F3FF" stroke-width="3" stroke-miterlimit="10"/>
<path d="M169.765 35.1877H184.491" stroke="#F3F3FF" stroke-width="3" stroke-miterlimit="10"/>
<path d="M224.699 192.679L288.444 203.658L302.983 215.479C302.983 215.479 303.755 227.142 302.789 232.878C302.789 232.878 303.506 243.02 301.575 244.501C299.644 245.982 265.352 244.607 241.219 240.033C217.086 235.459 195.24 226.402 193.959 224.754C192.679 223.106 192.674 212.979 192.674 212.979V211.964C193.756 208.049 204.484 198.541 204.484 198.541L216.258 191.386L224.699 192.679Z" fill="white"/>
<path d="M209.331 181.963C209.331 181.963 213.011 165.624 215.76 154.843C218.509 144.062 221.35 131.668 223.723 129.69C226.096 127.712 253.197 117.468 253.197 117.468L282.036 115.415C282.036 115.415 314.167 122.489 320.962 129.431C327.756 136.374 348.088 186.832 348.637 191.492C349.185 196.152 347.402 205.184 344.241 206.853C341.08 208.521 334.484 208.085 332.014 208.222C330.643 208.367 329.299 208.709 328.025 209.236L326.501 209.388C326.501 209.388 316.708 205.707 313.873 206.315C311.037 206.924 309.467 206.315 309.467 206.315C309.05 206.457 307.18 208.546 306.87 208.851L304.568 214.611C304.304 214.883 303.988 215.098 303.639 215.243C303.289 215.389 302.914 215.462 302.535 215.458C299.827 215.423 293.388 215.357 292.316 215.458C291.407 215.459 290.502 215.324 289.633 215.058C289.095 214.915 288.611 214.617 288.242 214.201C287.873 213.785 287.636 213.27 287.559 212.72L286.797 207.142C286.727 206.631 286.8 206.111 287.007 205.638C287.214 205.166 287.548 204.76 287.971 204.464C289.455 203.45 286.34 204.86 288.449 203.648L224.704 192.658L224.653 193.592C224.668 193.844 224.612 194.095 224.491 194.317C224.371 194.539 224.191 194.723 223.972 194.849L222.28 195.818C222.011 195.971 221.699 196.029 221.393 195.982C221.088 195.935 220.807 195.786 220.598 195.559L219.912 194.824C219.681 194.57 219.552 194.239 219.551 193.896C219.551 193.633 219.475 193.376 219.332 193.155C219.189 192.934 218.985 192.76 218.745 192.653C218.505 192.545 218.238 192.51 217.978 192.55C217.718 192.591 217.475 192.706 217.279 192.882L215.658 194.317C215.422 194.527 215.266 194.812 215.216 195.123L214.677 198.541C214.621 198.891 214.43 199.205 214.146 199.417C213.861 199.629 213.505 199.722 213.153 199.677L201.155 198.08C200.884 198.045 200.629 197.93 200.424 197.749C200.219 197.568 200.074 197.33 200.006 197.065L199.534 195.088C199.452 194.732 199.514 194.358 199.707 194.048L203.772 187.613V187.587L202.11 187.547C202.11 187.547 203.304 183.799 206.785 182.612C207.613 182.385 208.469 182.279 209.326 182.298" fill="white"/>
<path d="M230.558 53.0444C230.558 53.0444 228.322 79.2268 231.884 90.8144C235.446 102.402 242.474 109.456 253.466 109.456C264.458 109.456 271.369 105.034 277.716 99.3136C280.714 96.6158 284.871 89.6785 287.021 87.7362C287.021 87.7362 297.525 78.8363 299.583 74.9772C301.641 71.118 301.646 58.5162 301.646 58.5162L298.089 55.6256L265.667 40.544H241.397L230.487 50.5646L230.558 53.0444Z" fill="white" stroke="#212123" stroke-width="3" stroke-linecap="round" stroke-linejoin="round"/>
<path d="M321.134 200.869C321.836 201.493 322.489 202.171 323.086 202.897C322.561 202.111 321.9 201.424 321.134 200.869Z" fill="#4343C4"/>
<path d="M320.362 200.346C318.644 199.307 316.164 198.5 312.612 198.237C315.27 198.631 317.871 199.34 320.362 200.346Z" fill="#4343C4"/>
<path d="M305.752 198.358C303.806 198.516 301.138 198.784 298.755 199.21C300.874 198.952 303.46 198.855 305.752 198.358Z" fill="#4343C4"/>
<path d="M293.312 200.995L295.817 199.875C295.176 200.054 294.556 200.3 293.967 200.61L293.312 200.995Z" fill="#4343C4"/>
<path d="M348.662 191.487C348.113 186.827 327.781 136.374 320.987 129.426C320.366 128.821 319.685 128.28 318.954 127.814C311.906 124.771 302.184 122.149 302.184 122.149L281.858 117.463C280.897 120.05 277.05 125.552 275.251 127.778C273.117 130.42 267.425 135.197 265.876 134.746C264.326 134.294 262.898 121.612 262.898 121.612C262.898 122.002 260.24 125.582 258.924 128.098C257.608 130.613 255.666 135.167 254.858 135.263C254.05 135.359 250.859 129.938 251.637 124.325C251.88 122.575 252.114 121.196 252.358 120.105C247.246 121.525 232.031 127.58 227.021 130.927C221.538 134.584 211.298 182.207 211.298 182.207L225.913 184.387C225.913 184.387 225.578 186.015 224.841 188.673C224.104 191.33 225.715 192.415 225.715 192.415L288.444 203.658C288.444 203.658 292.041 201.558 293.312 200.985L293.967 200.6C294.44 200.331 295.08 200.646 295.817 200.427V199.865C296.569 199.53 299.593 199.677 300.746 199.535C303.135 199.109 303.795 198.521 305.742 198.348C306.006 198.293 306.25 198.232 306.519 198.161C308.044 197.75 310.315 197.867 312.617 198.227C316.174 198.49 318.649 199.297 320.367 200.336C320.644 200.474 320.903 200.644 321.139 200.843C321.905 201.399 322.566 202.085 323.091 202.872C325.083 205.215 323.482 208.856 325.601 209.013C328.056 209.195 339.601 207.928 344.403 206.721C347.478 204.946 349.206 196.092 348.662 191.487Z" fill="#2727AD"/>
<path d="M256.038 74.9873C256.936 74.9873 257.664 73.8453 257.664 72.4365C257.664 71.0277 256.936 69.8857 256.038 69.8857C255.139 69.8857 254.411 71.0277 254.411 72.4365C254.411 73.8453 255.139 74.9873 256.038 74.9873Z" fill="#212123"/>
<path d="M236.966 74.9873C237.864 74.9873 238.592 73.8453 238.592 72.4365C238.592 71.0277 237.864 69.8857 236.966 69.8857C236.068 69.8857 235.34 71.0277 235.34 72.4365C235.34 73.8453 236.068 74.9873 236.966 74.9873Z" fill="#212123"/>
<path d="M244.273 70.2863C244.273 70.2863 243.419 77.7054 242.723 79.7897C242.027 81.8739 240.863 85.6621 241.641 86.2047C242.418 86.7473 245.976 87.1327 245.976 87.1327" stroke="#212123" stroke-width="3" stroke-linecap="round" stroke-linejoin="round"/>
<path d="M239.471 91.8743C241.236 93.5588 243.539 94.5695 245.976 94.7293C250 94.9626 255.341 92.5132 255.341 92.5132" stroke="#212123" stroke-width="3" stroke-linecap="round" stroke-linejoin="round"/>
<path d="M254.416 61.0772C256.329 60.6694 258.307 60.6694 260.22 61.0772C261.896 61.4213 263.465 62.1641 264.793 63.2426" stroke="#212123" stroke-width="3" stroke-linecap="round" stroke-linejoin="round"/>
<path d="M242.957 60.8388C242.957 60.8388 239.176 60.0984 236.351 60.6106C233.525 61.1228 232.524 62.0406 232.524 62.0406" stroke="#212123" stroke-width="3" stroke-linecap="round" stroke-linejoin="round"/>
<path d="M292.661 66.8176C292.661 66.8176 293.012 67.5935 292.814 69.3075C292.758 70.2263 292.401 71.1013 291.798 71.7975" stroke="#212123" stroke-width="3" stroke-linecap="round" stroke-linejoin="round"/>
<path d="M254.269 116.393C255.412 115.886 256.911 118.665 258.842 119.436C260.774 120.207 262.867 121.226 262.867 121.611C262.867 121.997 260.209 125.582 258.893 128.097C257.577 130.613 255.636 135.167 254.828 135.263C254.02 135.359 250.829 129.938 251.606 124.325C252.384 118.711 253.126 116.875 254.269 116.393Z" fill="white" stroke="#212123" stroke-width="3" stroke-linecap="round" stroke-linejoin="round"/>
<path d="M262.877 121.617C262.877 121.617 264.3 134.294 265.855 134.751C267.41 135.207 273.097 130.425 275.231 127.783C277.365 125.141 282.432 117.823 282.041 116.338C281.649 114.852 281.243 114.345 278.336 113.65C275.429 112.955 274.626 113.067 273.549 113.65C272.472 114.233 270.317 117.266 268.635 118.361C266.953 119.456 262.877 121.617 262.877 121.617Z" fill="white" stroke="#212123" stroke-width="3" stroke-linecap="round" stroke-linejoin="round"/>
<path d="M253.222 117.448C253.222 117.448 226.106 127.687 223.748 129.67C221.39 131.652 218.529 144.036 215.785 154.823C213.041 165.609 209.357 181.943 209.357 181.943" stroke="#212123" stroke-width="3" stroke-linecap="round" stroke-linejoin="round"/>
<path d="M291.096 205.139C291.096 205.139 296.864 204.317 298.765 205.007C300.136 205.463 301.549 205.787 302.982 205.975" stroke="#212123" stroke-width="3" stroke-linecap="round" stroke-linejoin="round"/>
<path d="M291.096 214.916V211.067" stroke="#212123" stroke-width="3" stroke-linecap="round" stroke-linejoin="round"/>
<path d="M295.629 214.916V211.067" stroke="#212123" stroke-width="3" stroke-linecap="round" stroke-linejoin="round"/>
<path d="M300.162 214.916V211.067" stroke="#212123" stroke-width="3" stroke-linecap="round" stroke-linejoin="round"/>
<path d="M203.757 187.607L199.691 194.043C199.499 194.353 199.437 194.727 199.519 195.082L199.991 197.06C200.058 197.325 200.204 197.563 200.409 197.744C200.614 197.925 200.868 198.04 201.14 198.074L213.127 199.682C213.48 199.727 213.836 199.634 214.12 199.422C214.405 199.21 214.596 198.896 214.652 198.546L215.191 195.128C215.241 194.817 215.397 194.532 215.633 194.322L217.254 192.887C217.45 192.711 217.693 192.596 217.953 192.555C218.213 192.515 218.479 192.55 218.72 192.658C218.96 192.765 219.164 192.939 219.307 193.16C219.45 193.381 219.526 193.638 219.525 193.901V193.901C219.527 194.244 219.655 194.575 219.886 194.829L220.572 195.564C220.782 195.791 221.062 195.94 221.368 195.987C221.673 196.034 221.986 195.976 222.254 195.823L223.946 194.854C224.166 194.728 224.346 194.544 224.466 194.322C224.586 194.1 224.642 193.849 224.627 193.597L224.282 187.592" stroke="#212123" stroke-width="3" stroke-linecap="round" stroke-linejoin="round"/>
<path d="M210.77 199.251L211.288 194.504" stroke="#212123" stroke-width="3" stroke-linecap="round" stroke-linejoin="round"/>
<path d="M206.562 198.445L207.177 193.85" stroke="#212123" stroke-width="3" stroke-linecap="round" stroke-linejoin="round"/>
<path d="M202.664 198.135L203.421 193.373" stroke="#212123" stroke-width="3" stroke-linecap="round" stroke-linejoin="round"/>
<path d="M326.531 209.398C326.531 209.398 316.739 205.717 313.903 206.325C311.067 206.934 309.497 206.325 309.497 206.325" stroke="#212123" stroke-width="3" stroke-linecap="round" stroke-linejoin="round"/>
<path d="M302.982 215.489C302.982 215.489 304.227 234.252 301.575 235.915C298.922 237.579 262.293 235.52 242.962 231.671C223.631 227.822 193.959 215.839 192.653 212.989C191.347 210.139 204.463 198.536 204.463 198.536" stroke="#212123" stroke-width="3" stroke-linecap="round" stroke-linejoin="round"/>
<path d="M192.674 212.989C192.674 212.989 192.674 223.131 193.959 224.764C195.245 226.397 217.081 235.474 241.219 240.043C265.357 244.612 299.659 245.972 301.575 244.511C303.491 243.051 302.789 232.888 302.789 232.888" stroke="#212123" stroke-width="3" stroke-linecap="round" stroke-linejoin="round"/>
<path d="M254.503 109.451C264.377 109.197 270.897 105.282 276.791 100.145V113.33C275.084 113.031 274.408 113.198 273.549 113.66C272.472 114.238 270.317 117.276 268.635 118.371C266.953 119.466 262.878 121.627 262.878 121.627C262.878 121.241 260.794 120.227 258.853 119.451C256.912 118.675 255.646 115.688 254.503 116.17V109.451Z" fill="white" stroke="#212123" stroke-width="3" stroke-linecap="round" stroke-linejoin="round"/>
<path d="M224.698 192.679L288.444 203.668" stroke="#212123" stroke-width="3" stroke-linecap="round" stroke-linejoin="round"/>
<path d="M200.225 212.989C200.225 212.989 233.185 220.971 247.094 223.988C261.002 227.005 293.967 231.088 293.967 231.088" stroke="#212123" stroke-linecap="round" stroke-linejoin="round"/>
<path d="M203.299 207.41C203.299 207.41 236.259 215.392 250.168 218.41C264.077 221.427 297.037 225.509 297.037 225.509" stroke="#212123" stroke-linecap="round" stroke-linejoin="round"/>
<path d="M205.845 202.005C205.845 202.005 238.805 209.992 252.714 213.004C266.623 216.016 299.583 220.104 299.583 220.104" stroke="#212123" stroke-linecap="round" stroke-linejoin="round"/>
<path d="M218.138 198.419C218.138 198.419 238.805 203.445 252.694 206.462C266.582 209.479 284.587 211.594 284.587 211.594" stroke="#212123" stroke-linecap="round" stroke-linejoin="round"/>
<path d="M218.138 220.104L230.502 198.419" stroke="#212123" stroke-linecap="round" stroke-linejoin="round"/>
<path d="M245.889 226.732L254.503 203.668" stroke="#212123" stroke-linecap="round" stroke-linejoin="round"/>
<path d="M274.606 231.088L279.551 207.41" stroke="#212123" stroke-linecap="round" stroke-linejoin="round"/>
<path d="M265.652 205.499L260.753 229.703" stroke="#212123" stroke-linecap="round" stroke-linejoin="round"/>
<path d="M240.503 201.001L232.225 224.034" stroke="#212123" stroke-linecap="round" stroke-linejoin="round"/>
<path d="M226.065 183.672C226.574 179.758 226.858 172.886 227.849 164.62C229.313 152.373 230.502 147.439 230.502 147.439" stroke="white" stroke-width="2" stroke-miterlimit="10" stroke-linecap="round"/>
<path d="M301.575 195.656C301.575 195.656 306.346 189.849 307.718 189.712C309.091 189.575 309.243 191.563 311.784 191.908C314.325 192.253 318.898 192.364 320.372 193.85" stroke="white" stroke-width="2" stroke-miterlimit="10" stroke-linecap="round"/>
<path d="M303.735 154.468C303.735 154.468 304.629 164.412 306.001 170.989C307.373 177.567 311.84 183.333 311.774 184.428C311.708 185.523 309.37 186.279 309.37 187.035C309.37 187.79 310.951 188.556 311.017 188.951C311.083 189.347 309.391 190.047 309.391 190.047" stroke="white" stroke-width="2" stroke-miterlimit="10" stroke-linecap="round"/>
<path d="M316.927 188.891C316.927 188.891 322.146 187.369 325.718 187.79C329.291 188.211 336.09 193.343 336.09 193.343" stroke="white" stroke-width="2" stroke-miterlimit="10" stroke-linecap="round"/>
<path d="M303.735 196.294C302.169 195.676 299.131 195.61 298.033 196.223C296.935 196.837 299.867 198.678 298.541 199.266" stroke="white" stroke-width="2" stroke-miterlimit="10" stroke-linecap="round"/>
<path d="M282.061 115.42C282.061 115.42 314.193 122.494 320.987 129.436C327.781 136.379 348.113 186.837 348.662 191.497C349.211 196.158 347.427 205.189 344.266 206.858C341.106 208.526 334.51 208.09 332.04 208.227C330.668 208.372 329.325 208.714 328.051 209.241C327.635 209.409 327.186 209.475 326.74 209.433C326.294 209.391 325.864 209.243 325.488 209.001C325.111 208.759 324.798 208.43 324.576 208.042C324.353 207.654 324.227 207.218 324.209 206.771V206.7C324.209 204.505 323.04 197.633 308.542 198.156C308.542 198.156 297.301 198.663 293.968 200.595C291.854 201.812 289.45 203.44 287.966 204.469C287.543 204.765 287.209 205.171 287.002 205.643C286.795 206.116 286.722 206.636 286.792 207.147L287.554 212.725C287.631 213.275 287.868 213.79 288.237 214.206C288.606 214.622 289.09 214.92 289.628 215.063C290.497 215.329 291.402 215.464 292.311 215.463C293.403 215.357 299.822 215.423 302.53 215.463C302.909 215.467 303.284 215.394 303.634 215.248C303.983 215.103 304.299 214.888 304.563 214.617L306.865 208.856C307.175 208.536 309.045 206.447 309.462 206.32L323.828 204.505" stroke="#212123" stroke-width="3" stroke-linecap="round" stroke-linejoin="round"/>
<path d="M284.907 90.5304C287.133 86.7423 289.618 82.3354 292.321 80.3881C297.403 76.676 299.126 73.4508 300.056 69.8959C300.985 66.341 302.637 60.4382 296.717 57.6693C290.797 54.9005 285.74 64.6827 285.74 64.6827C285.74 64.6827 280.943 62.6543 279.012 58.4604C277.081 54.2666 275.292 49.3323 275.292 49.3323C270.719 50.0778 266.623 55.6966 266.623 55.6966C265.307 55.0019 263.604 48.7441 263.604 48.7441C263.604 48.7441 260.814 50.6762 258.726 52.375C256.637 54.0739 249.579 57.2433 249.579 57.2433C249.579 57.2433 250.819 54.8447 251.749 52.5272C252.679 50.2096 251.708 46.8475 251.708 46.8475C251.708 46.8475 244.162 52.5271 236.844 53.3385C229.526 54.1499 223.022 50.093 223.022 50.093C223.022 50.093 228.479 46.1527 231.269 42.679C233.125 40.2649 234.721 37.6626 236.031 34.915C233.143 35.2974 230.234 35.4905 227.321 35.4931C223.835 35.3765 220.237 33.2922 220.237 33.2922C220.237 33.2922 229.292 29.6968 232.199 27.8407C235.106 25.9847 240.909 21.3547 240.909 21.3547C240.909 21.3547 236.148 20.5434 234.303 19.8334C232.458 19.1234 229.892 15.7765 229.892 15.7765C229.892 15.7765 239.446 14.2906 244.324 14.2906C249.203 14.2906 250.793 14.2906 254.279 13.109C257.765 11.9275 263.426 8.474 272.396 8.93547C281.365 9.39695 284.241 15.3099 284.241 15.3099C284.241 15.3099 291.442 11.253 299.456 17.3992C307.47 23.5455 311.068 40.9243 311.068 40.9243C311.068 40.9243 309.543 39.6515 305.844 39.403C305.844 39.403 309.441 44.6161 309.325 49.4845C309.225 52.5179 308.556 55.5057 307.353 58.2931C306.946 57.1161 306.221 56.0738 305.259 55.2808C305.259 55.2808 306.967 68.4912 301.311 76.2957" fill="#212123"/>
<path d="M223.621 183.977C223.621 183.977 210.251 181.416 206.77 182.607C203.289 183.799 202.095 187.542 202.095 187.542C202.095 187.542 223.601 188.16 225.039 187.105C225.512 186.766 225.817 185.584 226.055 183.672" stroke="#212123" stroke-width="3" stroke-linecap="round" stroke-linejoin="round"/>
<g style="mix-blend-mode:soft-light" opacity="0.8">
<path d="M236.585 120.491V265.526C236.586 266.249 236.437 266.964 236.146 267.626C235.856 268.288 235.431 268.883 234.898 269.372C234.366 269.862 233.737 270.236 233.052 270.47C232.367 270.704 231.64 270.794 230.919 270.734C216.69 269.532 177.317 264.248 130.605 241.321C81.8209 217.345 60.2896 200.027 54.3796 194.834C53.8245 194.343 53.3803 193.74 53.0763 193.066C52.7723 192.391 52.6155 191.659 52.6162 190.919V62.9128C52.6146 61.9518 52.8789 61.0089 53.3802 60.1882C53.8814 59.3676 54.6 58.701 55.4567 58.262C56.3134 57.8229 57.275 57.6286 58.2354 57.7003C59.1958 57.772 60.1177 58.1069 60.8995 58.6683C72.7551 67.1523 97.7877 82.5686 139 96.4839C186.545 112.539 219.414 114.978 231.488 115.278C232.85 115.313 234.145 115.878 235.097 116.851C236.049 117.825 236.583 119.131 236.585 120.491Z" fill="#DCDCFF"/>
</g>
<path d="M40.3336 97.7517V145.04C40.3336 145.04 47.8901 150.583 54.852 153.661C59.6085 155.771 69.8635 159.148 75.8802 161.07C76.4164 161.246 76.9866 161.291 77.5439 161.203C78.1011 161.115 78.6295 160.896 79.0852 160.564C79.5409 160.232 79.911 159.797 80.1649 159.294C80.4187 158.791 80.5491 158.236 80.5452 157.673V112.539C80.5489 111.818 80.3325 111.113 79.9249 110.518C79.5173 109.923 78.9378 109.466 78.2635 109.207C73.0243 107.179 60.1014 102.108 53.8712 99.0905C50.7358 97.5692 47.9561 96.0072 45.7405 94.6938C45.1993 94.365 44.5799 94.1864 43.9463 94.1765C43.3128 94.1666 42.688 94.3258 42.1368 94.6376C41.5855 94.9493 41.1277 95.4024 40.8107 95.9499C40.4937 96.4973 40.329 97.1194 40.3336 97.7517Z" fill="#F3F3FF"/>
<path d="M46.6502 126.029C46.6479 125.674 46.7432 125.325 46.9257 125.02C47.1081 124.715 47.3707 124.466 47.685 124.3C47.9993 124.134 48.3532 124.057 48.7083 124.077C49.0634 124.098 49.4061 124.215 49.6992 124.416C51.8274 125.855 54.0327 127.177 56.3055 128.376C60.7977 130.745 67.7901 132.864 70.7629 133.716C71.1687 133.833 71.5254 134.078 71.7794 134.415C72.0333 134.751 72.1706 135.161 72.1706 135.583V152.15C72.1712 152.453 72.1009 152.753 71.9651 153.024C71.8293 153.295 71.6319 153.531 71.3885 153.713C71.1452 153.895 70.8627 154.017 70.5635 154.071C70.2643 154.124 69.9568 154.107 69.6653 154.021C64.7995 152.603 60.0183 150.91 55.345 148.95C52.5381 147.684 49.9186 146.039 47.5598 144.062C47.2814 143.886 47.0519 143.642 46.8929 143.354C46.7339 143.066 46.6504 142.742 46.6502 142.413V126.029Z" fill="#DCDCFF"/>
<path d="M53.3326 113.67C53.3326 117.6 51.5997 120.44 49.4298 119.477C47.2599 118.513 46.1826 115.308 46.1826 111.363C46.1826 107.417 47.2599 103.893 49.7398 105.232C52.2197 106.57 53.3326 109.74 53.3326 113.67Z" fill="#DCDCFF"/>
<path d="M56.1833 113.107C58.3296 114.601 60.6294 115.863 63.0437 116.87C66.0214 118.02 69.0784 118.953 72.1908 119.664" stroke="#DCDCFF" stroke-width="3" stroke-linecap="round" stroke-linejoin="round"/>
<path d="M56.1833 118.33C58.3296 119.824 60.6294 121.086 63.0437 122.093C64.06 122.504 65.0763 122.879 66.1435 123.219" stroke="#DCDCFF" stroke-width="3" stroke-linecap="round" stroke-linejoin="round"/>
<path d="M150.998 128.671C150.998 127.653 151.249 126.65 151.729 125.753C152.21 124.855 152.904 124.089 153.752 123.523C154.6 122.956 155.574 122.608 156.589 122.507C157.604 122.406 158.628 122.557 159.571 122.945C164.561 124.999 170.929 127.509 176.437 129.375C187.429 133.082 203.985 137.337 203.996 137.337V173.85C203.996 175.071 203.721 176.276 203.192 177.377C202.663 178.479 201.892 179.447 200.937 180.211C199.983 180.975 198.868 181.515 197.676 181.791C196.484 182.067 195.245 182.072 194.051 181.806C187.866 180.442 179.862 178.403 173.256 175.848C160.506 170.908 151.008 165.979 150.998 165.969V128.671Z" fill="#F3F3FF"/>
<path d="M168.068 149.452C168.068 154.016 166.035 157.338 163.494 156.212C160.953 155.086 159.713 151.354 159.713 146.775C159.713 142.195 160.969 138.067 163.88 139.629C166.792 141.191 168.068 144.873 168.068 149.452Z" fill="#DCDCFF"/>
<path d="M173.256 148.626C173.256 148.626 176.636 150.335 181.25 152.246C184.707 153.586 188.257 154.676 191.871 155.507" stroke="#DCDCFF" stroke-width="3" stroke-linecap="round" stroke-linejoin="round"/>
<path d="M173.256 154.711C173.256 154.711 176.636 156.42 181.25 158.332C182.403 158.808 183.643 159.25 184.858 159.645" stroke="#DCDCFF" stroke-width="3" stroke-linecap="round" stroke-linejoin="round"/>
<path d="M92.9854 167.054V239.364C92.9854 239.885 93.1094 240.398 93.347 240.862C93.5846 241.325 93.9292 241.726 94.3523 242.031C105.094 249.61 116.344 256.443 128.024 262.483C145.068 271.337 178.114 282.702 189.945 286.668C190.44 286.833 190.969 286.879 191.486 286.801C192.003 286.722 192.494 286.522 192.918 286.217C193.342 285.912 193.687 285.51 193.925 285.045C194.162 284.58 194.286 284.066 194.284 283.544V205.083C194.284 204.396 194.069 203.727 193.669 203.169C193.269 202.611 192.704 202.191 192.054 201.969C183.862 199.19 154.957 189.332 136.927 182.699C121.748 177.12 105.73 168.56 97.8892 164.179C97.3871 163.9 96.8207 163.756 96.246 163.763C95.6712 163.769 95.1082 163.925 94.6126 164.216C94.117 164.506 93.7062 164.921 93.4208 165.419C93.1353 165.917 92.9852 166.481 92.9854 167.054Z" fill="#F3F3FF"/>
<path d="M101.411 225.149V238.02C101.413 238.347 101.495 238.669 101.649 238.957C101.803 239.246 102.025 239.493 102.295 239.678C111.241 245.644 120.499 251.128 130.031 256.109C143.325 263.016 168.144 272.113 176.275 275.055C176.578 275.158 176.902 275.188 177.219 275.143C177.536 275.097 177.838 274.978 178.1 274.794C178.362 274.61 178.577 274.367 178.727 274.084C178.877 273.802 178.958 273.488 178.963 273.168V259.872C178.96 259.472 178.839 259.082 178.615 258.751C178.39 258.42 178.073 258.162 177.703 258.01C171.498 255.536 143.94 244.465 130.712 238.116C121.717 233.691 112.964 228.79 104.49 223.435C104.184 223.251 103.834 223.152 103.476 223.146C103.119 223.14 102.766 223.229 102.453 223.402C102.141 223.576 101.88 223.829 101.697 224.136C101.514 224.443 101.415 224.792 101.411 225.149Z" fill="#DCDCFF"/>
<path d="M167.748 206.122C169.526 207.053 171.401 207.789 173.337 208.318C176.925 209.332 178.973 209.84 178.973 209.84" stroke="#DCDCFF" stroke-width="3" stroke-linecap="round" stroke-linejoin="round"/>
<path d="M167.748 212.198C169.526 213.127 171.4 213.862 173.337 214.388C176.925 215.428 178.973 215.91 178.973 215.91" stroke="#DCDCFF" stroke-width="3" stroke-linecap="round" stroke-linejoin="round"/>
<path d="M173.886 220.621C177.139 221.549 178.968 221.965 178.968 221.965" stroke="#DCDCFF" stroke-width="3" stroke-linecap="round" stroke-linejoin="round"/>
<path d="M173.886 226.691C177.139 227.619 178.968 228.035 178.968 228.035" stroke="#DCDCFF" stroke-width="3" stroke-linecap="round" stroke-linejoin="round"/>
<path d="M86.5264 72.761V91.1135C86.5259 92.1622 86.797 93.1933 87.3134 94.1067C87.8298 95.0201 88.574 95.7848 89.4738 96.3267C92.8328 98.3551 99.2968 101.55 109.989 104.441C118.973 106.885 126.469 108.584 131.576 109.654C132.464 109.839 133.382 109.825 134.263 109.611C135.145 109.398 135.968 108.991 136.672 108.42C137.376 107.849 137.943 107.129 138.333 106.312C138.722 105.494 138.924 104.6 138.924 103.695V85.3729C138.923 83.9426 138.417 82.5584 137.495 81.4632C136.574 80.368 135.295 79.6318 133.883 79.3839C123.12 77.4822 122.022 77.1171 112.723 74.0237C107.214 72.1879 100.323 69.4039 94.9925 67.1523C94.0654 66.7624 93.0561 66.6075 92.0544 66.7013C91.0528 66.7952 90.0899 67.1349 89.2517 67.6902C88.4135 68.2455 87.7261 68.9991 87.2505 69.8838C86.775 70.7686 86.5262 71.757 86.5264 72.761Z" fill="#F3F3FF"/>
<path d="M95.1094 80.1142C100.346 82.5205 105.734 84.5855 111.239 86.296C119.156 88.6389 128.918 91.1085 128.918 91.1085" stroke="#DCDCFF" stroke-width="3" stroke-linecap="round" stroke-linejoin="round"/>
<path d="M95.1094 86.5952C95.1094 86.5952 99.3628 89.3742 107.306 91.7171" stroke="#DCDCFF" stroke-width="3" stroke-linecap="round" stroke-linejoin="round"/>
</svg>
