<svg width="32" height="32" viewBox="0 0 32 32" fill="none" xmlns="http://www.w3.org/2000/svg">
<circle cx="16" cy="7" r="4" stroke="#848492" stroke-width="2"/>
<circle cx="24" cy="22" r="4" stroke="#848492" stroke-width="2"/>
<circle cx="8" cy="22" r="4" stroke="#848492" stroke-width="2"/>
<path fill-rule="evenodd" clip-rule="evenodd" d="M20.9892 7.33158C20.9964 7.22198 21 7.11142 21 7.00001C21 6.71521 20.9762 6.43598 20.9305 6.16419C24.5299 7.97203 27 11.6976 27 16C27 16.6423 26.945 17.2717 26.8393 17.8838C26.549 17.6832 26.2365 17.5125 25.9061 17.3762C25.968 16.9263 26 16.4669 26 16C26 12.2941 23.9842 9.05908 20.9892 7.33158ZM16 27C17.7385 27 19.3827 26.5967 20.8444 25.8786C20.5693 25.6546 20.3186 25.4019 20.0967 25.1251C18.8464 25.6872 17.4597 26 16 26C14.5403 26 13.1536 25.6872 11.9033 25.1251C11.6814 25.4019 11.4307 25.6546 11.1556 25.8786C12.6173 26.5967 14.2615 27 16 27ZM5.16068 17.8838C5.05505 17.2717 5 16.6423 5 16C5 11.6976 7.47011 7.97203 11.0696 6.16418C11.0238 6.43598 11 6.71521 11 7.00001C11 7.11142 11.0036 7.22198 11.0108 7.33158C8.01585 9.05908 6 12.2941 6 16C6 16.4669 6.032 16.9263 6.09391 17.3762C5.76355 17.5125 5.45099 17.6832 5.16068 17.8838Z" fill="#848492"/>
</svg>
