<svg width="32" height="32" viewBox="0 0 32 32" fill="none" xmlns="http://www.w3.org/2000/svg">
<mask id="path-1-inside-1_996_2305" fill="white">
<path d="M6.44153 9.3001C5.54642 9.84429 5 10.816 5 11.8635V24C5 25.6568 6.34315 27 8 27L13 27V19.2037C13 18.0991 13.8954 17.2037 15 17.2037H17C18.1046 17.2037 19 18.0991 19 19.2037V27L24 27C25.6569 27 27 25.6568 27 24V11.8635C27 10.816 26.4536 9.84429 25.5585 9.3001L17.5585 4.43639C16.601 3.85429 15.399 3.85429 14.4415 4.43639L6.44153 9.3001Z"/>
</mask>
<path d="M6.44153 9.3001L5.40255 7.59114L5.40255 7.59114L6.44153 9.3001ZM8 27L8 25H8V27ZM13 27L13 29C13.5304 29 14.0391 28.7893 14.4142 28.4142C14.7893 28.0391 15 27.5304 15 27H13ZM19 27H17C17 27.5304 17.2107 28.0391 17.5858 28.4142C17.9609 28.7893 18.4696 29 19 29L19 27ZM24 27V25H24L24 27ZM25.5585 9.3001L26.5975 7.59114V7.59114L25.5585 9.3001ZM17.5585 4.43639L16.5195 6.14534L16.5195 6.14534L17.5585 4.43639ZM14.4415 4.43639L13.4025 2.72744V2.72744L14.4415 4.43639ZM7 11.8635C7 11.5143 7.18214 11.1904 7.48051 11.009L5.40255 7.59114C3.9107 8.49813 3 10.1176 3 11.8635H7ZM7 24V11.8635H3V24H7ZM8 25C7.44772 25 7 24.5523 7 24H3C3 26.7614 5.23858 29 8 29V25ZM13 25L8 25L8 29L13 29L13 25ZM15 27V19.2037H11V27H15ZM15 19.2037V19.2037V15.2037C12.7909 15.2037 11 16.9946 11 19.2037H15ZM15 19.2037H17V15.2037H15V19.2037ZM17 19.2037H21C21 16.9946 19.2091 15.2037 17 15.2037V19.2037ZM17 19.2037V27H21V19.2037H17ZM24 25L19 25L19 29L24 29L24 25ZM25 24C25 24.5523 24.5523 25 24 25V29C26.7614 29 29 26.7614 29 24H25ZM25 11.8635V24H29V11.8635H25ZM24.5195 11.009C24.8179 11.1904 25 11.5143 25 11.8635H29C29 10.1176 28.0893 8.49813 26.5975 7.59114L24.5195 11.009ZM16.5195 6.14534L24.5195 11.009L26.5975 7.59114L18.5975 2.72744L16.5195 6.14534ZM15.4805 6.14534C15.7997 5.95131 16.2003 5.95131 16.5195 6.14534L18.5975 2.72744C17.0017 1.75728 14.9983 1.75728 13.4025 2.72744L15.4805 6.14534ZM7.48051 11.009L15.4805 6.14534L13.4025 2.72744L5.40255 7.59114L7.48051 11.009Z" fill="#848492" mask="url(#path-1-inside-1_996_2305)"/>
</svg>
