<svg width="59" height="18" viewBox="0 0 59 18" fill="none" xmlns="http://www.w3.org/2000/svg">
<path d="M19.4657 0.251748V17.8238H15.8846V6.3944L11.1013 17.8238H8.38995L3.58107 6.3944V17.8238H0V0.251748H4.06708L9.74564 13.3175L15.4242 0.251748H19.4657Z" fill="#2727AD"/>
<path d="M31.2938 18C29.6227 18 28.0879 17.614 26.6896 16.842C25.2913 16.0699 24.1828 15.0042 23.3643 13.6448C22.5458 12.2685 22.1365 10.7161 22.1365 8.98741C22.1365 7.27552 22.5458 5.73986 23.3643 4.38042C24.1828 3.00419 25.2913 1.93007 26.6896 1.15804C28.0879 0.386014 29.6227 0 31.2938 0C32.9821 0 34.5168 0.386014 35.8981 1.15804C37.2964 1.93007 38.3963 3.00419 39.1978 4.38042C40.0163 5.73986 40.4256 7.27552 40.4256 8.98741C40.4256 10.7161 40.0163 12.2685 39.1978 13.6448C38.3963 15.0042 37.2964 16.0699 35.8981 16.842C34.4997 17.614 32.965 18 31.2938 18ZM31.2938 14.8531C32.3682 14.8531 33.3146 14.6182 34.1331 14.1483C34.9516 13.6615 35.5911 12.9734 36.0515 12.0839C36.512 11.1944 36.7422 10.1622 36.7422 8.98741C36.7422 7.81259 36.512 6.78881 36.0515 5.91608C35.5911 5.02657 34.9516 4.34685 34.1331 3.87692C33.3146 3.40699 32.3682 3.17203 31.2938 3.17203C30.2195 3.17203 29.2646 3.40699 28.429 3.87692C27.6104 4.34685 26.971 5.02657 26.5105 5.91608C26.0501 6.78881 25.8199 7.81259 25.8199 8.98741C25.8199 10.1622 26.0501 11.1944 26.5105 12.0839C26.971 12.9734 27.6104 13.6615 28.429 14.1483C29.2646 14.6182 30.2195 14.8531 31.2938 14.8531Z" fill="#2727AD"/>
<path d="M54.0377 14.4755H46.9267L45.75 17.8238H41.9899L48.4103 0.226572H52.5796L59 17.8238H55.2143L54.0377 14.4755ZM53.0657 11.6559L50.4822 4.30489L47.8987 11.6559H53.0657Z" fill="#2727AD"/>
</svg>
