<svg width="75" height="23" viewBox="0 0 75 23" fill="none" xmlns="http://www.w3.org/2000/svg">
<path d="M24.6538 0.32V22.656H20.1738V8.128L14.1898 22.656H10.7978L4.78176 8.128V22.656H0.301758V0.32H5.38976L12.4938 16.928L19.5978 0.32H24.6538Z" fill="#2727AD"/>
<path d="M39.451 22.88C37.3603 22.88 35.4403 22.3893 33.691 21.408C31.9417 20.4267 30.555 19.072 29.531 17.344C28.507 15.5947 27.995 13.6213 27.995 11.424C27.995 9.248 28.507 7.296 29.531 5.568C30.555 3.81867 31.9417 2.45333 33.691 1.472C35.4403 0.490666 37.3603 0 39.451 0C41.563 0 43.483 0.490666 45.211 1.472C46.9603 2.45333 48.3363 3.81867 49.339 5.568C50.363 7.296 50.875 9.248 50.875 11.424C50.875 13.6213 50.363 15.5947 49.339 17.344C48.3363 19.072 46.9603 20.4267 45.211 21.408C43.4617 22.3893 41.5417 22.88 39.451 22.88ZM39.451 18.88C40.795 18.88 41.979 18.5813 43.003 17.984C44.027 17.3653 44.827 16.4907 45.403 15.36C45.979 14.2293 46.267 12.9173 46.267 11.424C46.267 9.93067 45.979 8.62933 45.403 7.52C44.827 6.38933 44.027 5.52533 43.003 4.928C41.979 4.33067 40.795 4.032 39.451 4.032C38.107 4.032 36.9123 4.33067 35.867 4.928C34.843 5.52533 34.043 6.38933 33.467 7.52C32.891 8.62933 32.603 9.93067 32.603 11.424C32.603 12.9173 32.891 14.2293 33.467 15.36C34.043 16.4907 34.843 17.3653 35.867 17.984C36.9123 18.5813 38.107 18.88 39.451 18.88Z" fill="#2727AD"/>
<path d="M67.904 18.4H59.008L57.536 22.656H52.832L60.864 0.287998H66.08L74.112 22.656H69.376L67.904 18.4ZM66.688 14.816L63.456 5.472L60.224 14.816H66.688Z" fill="#2727AD"/>
</svg>