<svg width="36" height="30" viewBox="0 0 36 30" fill="none" xmlns="http://www.w3.org/2000/svg">
<mask id="path-1-inside-1_1445_4963" fill="white">
<path fill-rule="evenodd" clip-rule="evenodd" d="M26.4948 3H30C33.3137 3 36 5.68629 36 9V24C36 27.3137 33.3137 30 30 30H6C2.68629 30 0 27.3137 0 24V9C0 5.68629 2.68629 3 6 3H9.50522C10.3478 1.22629 12.1557 0 14.25 0H21.75C23.8443 0 25.6522 1.22629 26.4948 3Z"/>
</mask>
<path d="M26.4948 3L23.785 4.28728L24.5986 6H26.4948V3ZM9.50522 3V6H11.4014L12.215 4.28728L9.50522 3ZM26.4948 6H30V0H26.4948V6ZM30 6C31.6569 6 33 7.34315 33 9H39C39 4.02944 34.9706 0 30 0V6ZM33 9V24H39V9H33ZM33 24C33 25.6569 31.6569 27 30 27V33C34.9706 33 39 28.9706 39 24H33ZM30 27H6V33H30V27ZM6 27C4.34315 27 3 25.6569 3 24H-3C-3 28.9706 1.02944 33 6 33V27ZM3 24V9H-3V24H3ZM3 9C3 7.34315 4.34315 6 6 6V0C1.02944 0 -3 4.02944 -3 9H3ZM6 6H9.50522V0H6V6ZM12.215 4.28728C12.5794 3.52015 13.357 3 14.25 3V-3C10.9544 -3 8.11621 -1.06757 6.79544 1.71272L12.215 4.28728ZM14.25 3H21.75V-3H14.25V3ZM21.75 3C22.643 3 23.4206 3.52015 23.785 4.28728L29.2046 1.71272C27.8838 -1.06757 25.0455 -3 21.75 -3V3Z" fill="#BEBECA" mask="url(#path-1-inside-1_1445_4963)"/>
<circle cx="18" cy="16.5" r="7.5" stroke="#BEBECA" stroke-width="3"/>
<circle cx="28.5" cy="9" r="1.5" fill="#BEBECA"/>
</svg>
