<svg width="19" height="18" viewBox="0 0 19 18" fill="none" xmlns="http://www.w3.org/2000/svg">
<mask id="path-1-inside-1_809_5326" fill="white">
<rect y="4.47134" width="6.35294" height="12.7059" rx="1"/>
</mask>
<rect y="4.47134" width="6.35294" height="12.7059" rx="1" stroke="#2727AD" stroke-width="4" mask="url(#path-1-inside-1_809_5326)"/>
<path d="M7.94116 5.00078C7.57855 5.36339 7.203 5.67426 6.86436 5.92508C6.2556 6.37596 5.82352 7.06753 5.82352 7.82508V13.779C5.82352 14.8065 6.60211 15.6669 7.62451 15.7691L14.5319 16.4598C15.587 16.5654 16.541 15.8291 16.7064 14.7817L17.6349 8.90094C17.8266 7.68701 16.8884 6.58901 15.6594 6.58901H13.2353C13.2353 6.58901 14.8235 2.70675 12.7059 1.29491C10.5882 -0.116927 8.99999 3.94195 7.94116 5.00078Z" fill="#2727AD" stroke="#2727AD" stroke-width="2"/>
</svg>
