<svg width="24" height="24" viewBox="0 0 24 24" fill="none" xmlns="http://www.w3.org/2000/svg">
<mask id="path-1-inside-1_886_1888" fill="white">
<path fill-rule="evenodd" clip-rule="evenodd" d="M16.5354 15.4506C17.4671 14.5541 18.0321 13.3781 18.0321 12.0905C18.0321 9.27909 15.3386 7 12.016 7C8.69347 7 6 9.27909 6 12.0905C6 14.9019 8.69347 17.181 12.016 17.181C12.8452 17.181 13.6352 17.039 14.3539 16.7823C14.3614 16.7855 14.3688 16.7887 14.3764 16.7918L15.4111 17.2179C16.2242 17.5527 17.0424 16.7506 16.7239 15.931L16.5584 15.5049C16.5512 15.4865 16.5436 15.4684 16.5354 15.4506Z"/>
</mask>
<path d="M16.5354 15.4506L15.842 14.73C15.5358 15.0246 15.4493 15.4806 15.6262 15.8669L16.5354 15.4506ZM14.3539 16.7823L14.7537 15.8657C14.5204 15.7639 14.2572 15.755 14.0176 15.8406L14.3539 16.7823ZM14.3764 16.7918L13.9956 17.7165L13.9956 17.7165L14.3764 16.7918ZM15.4111 17.2179L15.7918 16.2932H15.7918L15.4111 17.2179ZM16.7239 15.931L15.7918 16.2932L15.7918 16.2932L16.7239 15.931ZM16.5584 15.5049L15.6263 15.8671L15.6263 15.8671L16.5584 15.5049ZM17.0321 12.0905C17.0321 13.0721 16.6038 13.9969 15.842 14.73L17.2288 16.1711C18.3303 15.1112 19.0321 13.6842 19.0321 12.0905H17.0321ZM12.016 8C14.9494 8 17.0321 9.98145 17.0321 12.0905H19.0321C19.0321 8.57673 15.7278 6 12.016 6V8ZM7 12.0905C7 9.98145 9.08265 8 12.016 8V6C8.30429 6 5 8.57673 5 12.0905H7ZM12.016 16.181C9.08265 16.181 7 14.1995 7 12.0905H5C5 15.6042 8.30429 18.181 12.016 18.181V16.181ZM14.0176 15.8406C13.4073 16.0586 12.7311 16.181 12.016 16.181V18.181C12.9593 18.181 13.8631 18.0195 14.6903 17.724L14.0176 15.8406ZM13.9542 17.6989C13.9678 17.7048 13.9816 17.7107 13.9956 17.7165L14.7572 15.8671C14.7561 15.8667 14.755 15.8662 14.7537 15.8657L13.9542 17.6989ZM13.9956 17.7165L15.0303 18.1425L15.7918 16.2932L14.7571 15.8671L13.9956 17.7165ZM15.0303 18.1425C16.6565 18.8121 18.293 17.208 17.656 15.5688L15.7918 16.2932L15.7918 16.2932L15.0303 18.1425ZM17.656 15.5688L17.4905 15.1428L15.6263 15.8671L15.7918 16.2932L17.656 15.5688ZM17.4905 15.1428C17.4762 15.106 17.4609 15.0698 17.4446 15.0342L15.6262 15.8669L15.6263 15.8671L17.4905 15.1428Z" fill="#212123" mask="url(#path-1-inside-1_886_1888)"/>
</svg>
