<svg width="25" height="24" viewBox="0 0 25 24" fill="none" xmlns="http://www.w3.org/2000/svg">
<mask id="path-1-inside-1_1172_4247" fill="white">
<path fill-rule="evenodd" clip-rule="evenodd" d="M19.3567 16.7095C20.7685 15.3501 21.6246 13.5673 21.6246 11.6153C21.6246 7.35139 17.5395 3.89478 12.5003 3.89478C7.46107 3.89478 3.37598 7.35139 3.37598 11.6153C3.37598 15.8793 7.46107 19.3359 12.5003 19.3359C13.7577 19.3359 14.9557 19.1207 16.0456 18.7315L18.7645 19.851C19.5776 20.1858 20.3958 19.3837 20.0774 18.5641L19.3567 16.7095Z"/>
</mask>
<path d="M19.3567 16.7095L17.9695 15.2688C17.3884 15.8283 17.2004 16.682 17.4925 17.4339L19.3567 16.7095ZM16.0456 18.7315L16.8071 16.8821C16.3497 16.6938 15.8387 16.6816 15.3729 16.848L16.0456 18.7315ZM18.7645 19.851L18.003 21.7004L18.7645 19.851ZM20.0774 18.5641L21.9416 17.8398L21.9416 17.8398L20.0774 18.5641ZM19.6246 11.6153C19.6246 12.9555 19.0418 14.2363 17.9695 15.2688L20.7439 18.1502C22.4952 16.4639 23.6246 14.1791 23.6246 11.6153H19.6246ZM12.5003 5.89478C16.7612 5.89478 19.6246 8.75612 19.6246 11.6153H23.6246C23.6246 5.94667 18.3179 1.89478 12.5003 1.89478V5.89478ZM5.37598 11.6153C5.37598 8.75612 8.23943 5.89478 12.5003 5.89478V1.89478C6.68271 1.89478 1.37598 5.94667 1.37598 11.6153H5.37598ZM12.5003 17.3359C8.23943 17.3359 5.37598 14.4746 5.37598 11.6153H1.37598C1.37598 17.284 6.68271 21.3359 12.5003 21.3359V17.3359ZM15.3729 16.848C14.4999 17.1598 13.5295 17.3359 12.5003 17.3359V21.3359C13.9859 21.3359 15.4114 21.0817 16.7183 20.6149L15.3729 16.848ZM15.2841 20.5808L18.003 21.7004L19.526 18.0017L16.8071 16.8821L15.2841 20.5808ZM18.003 21.7004C20.4422 22.7047 22.897 20.2986 21.9416 17.8398L18.2132 19.2885C17.8947 18.4689 18.713 17.6669 19.526 18.0017L18.003 21.7004ZM21.9416 17.8398L21.2209 15.9851L17.4925 17.4339L18.2132 19.2885L21.9416 17.8398Z" fill="#212123" mask="url(#path-1-inside-1_1172_4247)"/>
</svg>
