<svg width="13" height="13" viewBox="0 0 13 13" fill="none" xmlns="http://www.w3.org/2000/svg">
<path d="M1.47852 5.66309C1.47852 5.38694 1.70237 5.16309 1.97852 5.16309H4.10805V12.4998H1.97852C1.70237 12.4998 1.47852 12.2759 1.47852 11.9998V5.66309Z" stroke="#212123" stroke-linejoin="round"/>
<mask id="path-2-inside-1_886_1872" fill="white">
<path fill-rule="evenodd" clip-rule="evenodd" d="M8.41407 1.31225C7.50651 0.287656 5.84091 0.558666 5.30498 1.81813L3.82482 5.29661L3.7002 5.30394V5.58948V12.9999H8.9165C10.6346 12.9999 12.1606 11.9023 12.7069 10.2734C13.5629 7.7215 11.7088 5.11587 9.0956 5.00714L8.876 2.39175C8.8424 1.99154 8.68037 1.6129 8.41407 1.31225Z"/>
</mask>
<path d="M5.30498 1.81813L6.22514 2.20968L5.30498 1.81813ZM8.41407 1.31225L7.66551 1.97532V1.97532L8.41407 1.31225ZM3.82482 5.29661L3.88356 6.29488C4.2626 6.27258 4.59631 6.03753 4.74498 5.68815L3.82482 5.29661ZM3.7002 5.30394L3.64145 4.30567C3.1129 4.33677 2.7002 4.77447 2.7002 5.30394H3.7002ZM3.7002 12.9999H2.7002C2.7002 13.5522 3.14791 13.9999 3.7002 13.9999V12.9999ZM12.7069 10.2734L11.7589 9.95535L12.7069 10.2734ZM9.0956 5.00714L8.09911 5.09081C8.14127 5.59299 8.55052 5.98533 9.05403 6.00628L9.0956 5.00714ZM8.876 2.39175L7.87951 2.47542L7.87951 2.47542L8.876 2.39175ZM6.22514 2.20968C6.47342 1.62619 7.24506 1.50065 7.66551 1.97532L9.16264 0.649194C7.76796 -0.925333 5.20839 -0.508862 4.38482 1.42659L6.22514 2.20968ZM4.74498 5.68815L6.22514 2.20968L4.38482 1.42659L2.90466 4.90506L4.74498 5.68815ZM3.75894 6.30221L3.88356 6.29488L3.76608 4.29833L3.64145 4.30567L3.75894 6.30221ZM4.7002 5.58948V5.30394H2.7002V5.58948H4.7002ZM4.7002 12.9999V5.58948H2.7002V12.9999H4.7002ZM8.9165 11.9999H3.7002V13.9999H8.9165V11.9999ZM11.7589 9.95535C11.3491 11.1768 10.2048 11.9999 8.9165 11.9999V13.9999C11.0643 13.9999 12.972 12.6277 13.655 10.5914L11.7589 9.95535ZM9.05403 6.00628C11.011 6.0877 12.4002 8.04348 11.7589 9.95535L13.655 10.5914C14.7257 7.39952 12.4066 4.14404 9.13717 4.00801L9.05403 6.00628ZM7.87951 2.47542L8.09911 5.09081L10.0921 4.92347L9.8725 2.30808L7.87951 2.47542ZM7.66551 1.97532C7.78888 2.1146 7.86394 2.29001 7.87951 2.47542L9.8725 2.30808C9.82086 1.69306 9.57187 1.1112 9.16264 0.649194L7.66551 1.97532Z" fill="#212123" mask="url(#path-2-inside-1_886_1872)"/>
</svg>
