<svg width="16" height="16" viewBox="0 0 16 16" fill="none" xmlns="http://www.w3.org/2000/svg">
<path d="M2.47879 6.6633C2.47879 6.38716 2.70265 6.1633 2.97879 6.1633H5.10833V13.5H2.97879C2.70265 13.5 2.47879 13.2761 2.47879 13V6.6633Z" stroke="#2727AD" stroke-linejoin="round"/>
<mask id="path-2-inside-1_653_483" fill="white">
<path fill-rule="evenodd" clip-rule="evenodd" d="M9.41481 2.31235C8.50724 1.28775 6.84164 1.55876 6.30571 2.81822L4.82555 6.2967L4.70093 6.30403V6.58958V14H9.91723C11.6353 14 13.1613 12.9023 13.7077 11.2735C14.5637 8.72159 12.7096 6.11596 10.0963 6.00723L9.87674 3.39184C9.84313 2.99163 9.68111 2.61299 9.41481 2.31235Z"/>
</mask>
<path fill-rule="evenodd" clip-rule="evenodd" d="M9.41481 2.31235C8.50724 1.28775 6.84164 1.55876 6.30571 2.81822L4.82555 6.2967L4.70093 6.30403V6.58958V14H9.91723C11.6353 14 13.1613 12.9023 13.7077 11.2735C14.5637 8.72159 12.7096 6.11596 10.0963 6.00723L9.87674 3.39184C9.84313 2.99163 9.68111 2.61299 9.41481 2.31235Z" fill="#2727AD"/>
<path d="M6.30571 2.81822L7.22587 3.20977L6.30571 2.81822ZM9.41481 2.31235L8.66624 2.97541V2.97541L9.41481 2.31235ZM4.82555 6.2967L4.88429 7.29497C5.26333 7.27267 5.59704 7.03762 5.74571 6.68825L4.82555 6.2967ZM4.70093 6.30403L4.64219 5.30576C4.11363 5.33686 3.70093 5.77456 3.70093 6.30403H4.70093ZM4.70093 14H3.70093C3.70093 14.5523 4.14864 15 4.70093 15V14ZM13.7077 11.2735L12.7596 10.9554L13.7077 11.2735ZM10.0963 6.00723L9.09984 6.0909C9.142 6.59308 9.55125 6.98542 10.0548 7.00637L10.0963 6.00723ZM9.87674 3.39184L8.88024 3.47551L8.88024 3.47551L9.87674 3.39184ZM7.22587 3.20977C7.47415 2.62629 8.24579 2.50074 8.66624 2.97541L10.1634 1.64929C8.76869 0.0747582 6.20912 0.49123 5.38555 2.42668L7.22587 3.20977ZM5.74571 6.68825L7.22587 3.20977L5.38555 2.42668L3.90539 5.90515L5.74571 6.68825ZM4.75967 7.30231L4.88429 7.29497L4.76681 5.29843L4.64219 5.30576L4.75967 7.30231ZM5.70093 6.58958V6.30403H3.70093V6.58958H5.70093ZM5.70093 14V6.58958H3.70093V14H5.70093ZM9.91723 13H4.70093V15H9.91723V13ZM12.7596 10.9554C12.3499 12.1769 11.2056 13 9.91723 13V15C12.065 15 13.9727 13.6278 14.6558 11.5915L12.7596 10.9554ZM10.0548 7.00637C12.0117 7.08779 13.4009 9.04357 12.7596 10.9554L14.6558 11.5915C15.7264 8.39962 13.4074 5.14413 10.1379 5.0081L10.0548 7.00637ZM8.88024 3.47551L9.09984 6.0909L11.0928 5.92356L10.8732 3.30817L8.88024 3.47551ZM8.66624 2.97541C8.78961 3.11469 8.86467 3.2901 8.88024 3.47551L10.8732 3.30817C10.8216 2.69316 10.5726 2.11129 10.1634 1.64929L8.66624 2.97541Z" fill="#2727AD" mask="url(#path-2-inside-1_653_483)"/>
</svg>
