<svg width="25" height="24" viewBox="0 0 25 24" fill="none" xmlns="http://www.w3.org/2000/svg">
<mask id="path-1-inside-1_1172_4240" fill="white">
<rect x="3.5" y="7.47144" width="6.35294" height="12.7059" rx="1"/>
</mask>
<rect x="3.5" y="7.47144" width="6.35294" height="12.7059" rx="1" stroke="#212123" stroke-width="4" mask="url(#path-1-inside-1_1172_4240)"/>
<path d="M11.4409 8.00078C11.0783 8.36339 10.7027 8.67426 10.3641 8.92508C9.75533 9.37596 9.32324 10.0675 9.32324 10.8251V16.779C9.32324 17.8065 10.1018 18.6669 11.1242 18.7691L18.0316 19.4598C19.0867 19.5654 20.0408 18.8291 20.2061 17.7817L21.1347 11.9009C21.3263 10.687 20.3881 9.58901 19.1591 9.58901H16.735C16.735 9.58901 18.3232 5.70675 16.2056 4.29491C14.0879 2.88307 12.4997 6.94195 11.4409 8.00078Z" stroke="#212123" stroke-width="2"/>
</svg>
