<svg width="24" height="24" viewBox="0 0 24 24" fill="none" xmlns="http://www.w3.org/2000/svg">
<mask id="path-1-inside-1_653_477" fill="white">
<rect x="3" y="8.47134" width="6.35294" height="12.7059" rx="1"/>
</mask>
<rect x="3" y="8.47134" width="6.35294" height="12.7059" rx="1" stroke="#2727AD" stroke-width="4" mask="url(#path-1-inside-1_653_477)"/>
<path d="M10.9412 9.00078C10.5786 9.36339 10.203 9.67426 9.86436 9.92508C9.2556 10.376 8.82352 11.0675 8.82352 11.8251V17.779C8.82352 18.8065 9.60211 19.6669 10.6245 19.7691L17.5319 20.4598C18.587 20.5654 19.541 19.8291 19.7064 18.7817L20.6349 12.9009C20.8266 11.687 19.8884 10.589 18.6594 10.589H16.2353C16.2353 10.589 17.8235 6.70675 15.7059 5.29491C13.5882 3.88307 12 7.94195 10.9412 9.00078Z" fill="#2727AD" stroke="#2727AD" stroke-width="2"/>
</svg>
