<svg width="16" height="16" viewBox="0 0 16 16" fill="none" xmlns="http://www.w3.org/2000/svg">
<mask id="path-1-inside-1_1231_4291" fill="white">
<path fill-rule="evenodd" clip-rule="evenodd" d="M12.5354 11.4506C13.4671 10.5541 14.0321 9.37811 14.0321 8.09049C14.0321 5.27909 11.3386 3 8.01603 3C4.69347 3 2 5.27909 2 8.09049C2 10.9019 4.69347 13.181 8.01603 13.181C8.84521 13.181 9.63521 13.039 10.3539 12.7823C10.3614 12.7855 10.3688 12.7887 10.3764 12.7918L11.4111 13.2179C12.2242 13.5527 13.0424 12.7506 12.7239 11.931L12.5584 11.5049C12.5512 11.4865 12.5436 11.4684 12.5354 11.4506Z"/>
</mask>
<path d="M12.5354 11.4506L11.842 10.73C11.5358 11.0246 11.4493 11.4806 11.6262 11.8669L12.5354 11.4506ZM10.3539 12.7823L10.7537 11.8657C10.5204 11.7639 10.2572 11.755 10.0176 11.8406L10.3539 12.7823ZM10.3764 12.7918L9.99563 13.7165L9.99565 13.7165L10.3764 12.7918ZM11.4111 13.2179L11.7918 12.2932H11.7918L11.4111 13.2179ZM12.7239 11.931L11.7918 12.2932L11.7918 12.2932L12.7239 11.931ZM12.5584 11.5049L11.6263 11.8671L11.6263 11.8671L12.5584 11.5049ZM13.0321 8.09049C13.0321 9.07205 12.6038 9.99694 11.842 10.73L13.2288 12.1711C14.3303 11.1112 15.0321 9.68417 15.0321 8.09049H13.0321ZM8.01603 4C10.9494 4 13.0321 5.98145 13.0321 8.09049H15.0321C15.0321 4.57673 11.7278 2 8.01603 2V4ZM3 8.09049C3 5.98145 5.08265 4 8.01603 4V2C4.30429 2 1 4.57673 1 8.09049H3ZM8.01603 12.181C5.08265 12.181 3 10.1995 3 8.09049H1C1 11.6042 4.30429 14.181 8.01603 14.181V12.181ZM10.0176 11.8406C9.40728 12.0586 8.7311 12.181 8.01603 12.181V14.181C8.95932 14.181 9.86314 14.0195 10.6903 13.724L10.0176 11.8406ZM9.9542 13.6989C9.96776 13.7048 9.98156 13.7107 9.99563 13.7165L10.7572 11.8671C10.7561 11.8667 10.755 11.8662 10.7537 11.8657L9.9542 13.6989ZM9.99565 13.7165L11.0303 14.1425L11.7918 12.2932L10.7571 11.8671L9.99565 13.7165ZM11.0303 14.1425C12.6565 14.8121 14.293 13.208 13.656 11.5688L11.7918 12.2932L11.7918 12.2932L11.0303 14.1425ZM13.656 11.5688L13.4905 11.1428L11.6263 11.8671L11.7918 12.2932L13.656 11.5688ZM13.4905 11.1428C13.4762 11.106 13.4609 11.0698 13.4446 11.0342L11.6262 11.8669L11.6263 11.8671L13.4905 11.1428Z" fill="#848492" mask="url(#path-1-inside-1_1231_4291)"/>
</svg>
