<svg width="146" height="45" viewBox="0 0 146 45" fill="none" xmlns="http://www.w3.org/2000/svg">
<path d="M48.1693 0.62937V44.5594H39.3077V15.986L27.4711 44.5594H20.7616L8.86164 15.986V44.5594H0V0.62937H10.0643L24.1163 33.2937L38.1684 0.62937H48.1693Z" fill="#2727AD"/>
<path d="M77.439 45C73.3036 45 69.5057 44.035 66.0454 42.1049C62.5852 40.1748 59.8423 37.5105 57.8168 34.1119C55.7913 30.6713 54.7785 26.7902 54.7785 22.4685C54.7785 18.1888 55.7913 14.3496 57.8168 10.951C59.8423 7.51049 62.5852 4.82517 66.0454 2.8951C69.5057 0.965034 73.3036 0 77.439 0C81.6166 0 85.4145 0.965034 88.8325 2.8951C92.2928 4.82517 95.0146 7.51049 96.9979 10.951C99.0234 14.3496 100.036 18.1888 100.036 22.4685C100.036 26.7902 99.0234 30.6713 96.9979 34.1119C95.0146 37.5105 92.2928 40.1748 88.8325 42.1049C85.3723 44.035 81.5744 45 77.439 45ZM77.439 37.1329C80.0975 37.1329 82.4395 36.5455 84.465 35.3706C86.4905 34.1538 88.073 32.4336 89.2123 30.2098C90.3517 27.986 90.9213 25.4056 90.9213 22.4685C90.9213 19.5315 90.3517 16.972 89.2123 14.7902C88.073 12.5664 86.4905 10.8671 84.465 9.69231C82.4395 8.51748 80.0975 7.93007 77.439 7.93007C74.7805 7.93007 72.4174 8.51748 70.3497 9.69231C68.3242 10.8671 66.7417 12.5664 65.6024 14.7902C64.463 16.972 63.8933 19.5315 63.8933 22.4685C63.8933 25.4056 64.463 27.986 65.6024 30.2098C66.7417 32.4336 68.3242 34.1538 70.3497 35.3706C72.4174 36.5455 74.7805 37.1329 77.439 37.1329Z" fill="#2727AD"/>
<path d="M133.72 36.1888H116.124L113.212 44.5594H103.907L119.795 0.56643H130.112L146 44.5594H136.632L133.72 36.1888ZM131.315 29.1399L124.922 10.7622L118.529 29.1399H131.315Z" fill="#2727AD"/>
</svg>
